<?xml version="1.0" encoding="utf-8" ?><svg xmlns="http://www.w3.org/2000/svg" xmlns:xlink="http://www.w3.org/1999/xlink" width="4095" height="2150" viewBox="0 0 4095 2150"><path fill="#5A5A7E" transform="scale(0.999756 1)" d="M0 0L4096 0L4096 1153C4069.44 1151.13 4042.13 1148.85 4015.3 1149.14C3931.27 1150.07 3846.66 1171.67 3781.2 1198C3651.83 1250.03 3563.66 1330.12 3508.99 1409.64C3423.37 1366.11 3349.9 1332.33 3222.83 1333.27C3108.12 1334.11 3006.5 1367.04 2928.91 1409.38C2832.51 1461.98 2762.59 1530.74 2729.54 1601.59C2669.72 1575.71 2604.84 1561.4 2526.13 1565.38C2450.04 1569.23 2384.88 1595.03 2337.7 1625.28C2309.06 1643.92 2285.37 1664.51 2267.27 1686.5C2232.72 1674.5 2200.88 1669.16 2160.56 1664.89C2149.56 1584.12 2091.16 1502.05 1971.49 1448.07C1935.34 1431.76 1891.16 1415.83 1846.65 1406.81C1820.99 1401.61 1793.22 1397.44 1766.34 1394.48C1757.24 1393.48 1737.85 1393 1731.12 1390.15C1734.84 1359.58 1740.99 1328.99 1745.88 1298.46L1771.24 1140.03L1783.12 1068.77C1785.39 1054.63 1789.23 1039.99 1787.49 1025.8C1786.29 1016.02 1781.07 1006.18 1768.72 998.555C1764.8 996.136 1760.16 994.948 1754.63 993.801C1727.31 988.132 1698.8 983.503 1671.04 978.395C1591.23 963.708 1510.88 949.979 1430.88 935.618C1397.89 929.698 1196.22 890.601 1178.43 890.886C1173.03 890.973 1166.72 892.828 1162.79 894.654C1149.84 900.658 1145.01 910.144 1141.85 918.725C1137.77 929.791 1137.02 941.446 1135.27 952.675C1132.54 970.504 1129.63 988.326 1126.54 1006.14L1093.64 1202.24C1092.81 1202.21 1091.98 1202.2 1091.15 1202.17C1073.89 1201.49 1024.43 1190.73 999.937 1187.97C884.491 1174.97 770.569 1196.42 681.235 1234.73C570.593 1282.19 506.189 1356.85 486.876 1430.03C439.746 1423.44 383.989 1426.48 339.505 1436.83C313.622 1372.26 263.821 1305.32 154.092 1267.71C107.889 1251.87 55.2567 1243.95 0 1247.62L0 0ZM3564.48 190.421C3583.85 197.744 3601.23 206.33 3621.48 213.042C3621.65 213.38 3621.88 213.711 3621.99 214.056C3622.83 216.712 3621.1 219.682 3621 222.423C3620.46 238.453 3623.93 245.36 3647.19 256.456C3616.38 280.397 3626.03 316.221 3635.84 342.838C3644.67 366.766 3655.7 396.905 3683.79 416.605C3684.15 426.35 3688.99 454.264 3682.13 461.745L3677.49 462.671C3665.53 459.792 3660.46 462.073 3655.19 461.071C3642.62 458.679 3579.59 425.273 3566.89 418.941L3266.91 269.773C3243.7 258.513 3220.64 247.173 3197.72 235.753C3186.07 229.938 3173.72 222.472 3160.75 217.603C3155.6 215.67 3149.17 215.127 3143.23 216.327C3132.84 218.422 3125.34 224.253 3121.36 229.44C3113.35 239.876 3109.56 251.536 3104.76 262.489L3081.23 316.703L2991.77 519.812L2901.62 722.903C2890.19 749.028 2873.76 775.655 2866.24 802.106C2862.26 816.128 2864.39 829.562 2875.68 842.633C2879.08 846.56 2884.1 849.841 2889.64 852.983C2954.97 890.071 3027.75 924.1 3096.53 959.44C3163.08 993.987 3230.37 1028.13 3298.41 1061.87C3334.33 1080 3369.46 1098.86 3406.49 1116.35C3412.66 1119.26 3420.18 1123.45 3428.28 1124.77C3433.72 1125.66 3438.37 1124.71 3442.97 1123.19C3451.86 1120.27 3456.86 1115.82 3460.09 1110.69C3466.34 1100.75 3470.01 1089.98 3474.64 1079.77L3501.86 1019.68L3584.85 838.275L3680.16 629.595C3693.01 601.189 3707.48 572.715 3718.44 544.103C3726.79 522.291 3723.43 510.553 3710.08 489.951C3715.28 494.482 3720.59 500.675 3729.55 503.246L3731.32 502.326C3729.01 491.468 3712.61 476.412 3698.65 468.56C3698.31 468.369 3697.84 468.253 3697.43 468.099C3682.39 458.75 3691.12 431.138 3691.37 418.9C3703.59 422.437 3730.46 431.129 3744.18 428.525C3751.65 427.105 3754.88 422.659 3757.26 419.052C3761.56 412.532 3764.53 405.711 3769.39 399.307C3831.4 425.794 3889.33 482.898 3937.17 518.383C3932.99 510.872 3928.34 503.579 3923.02 496.268C3920.27 491.883 3916.31 487.639 3912.79 483.408L3930.43 490.845C3937.37 493.386 3944.46 495.077 3952.8 495.846L3954.18 494.772C3948.61 489.097 3937.8 484.801 3930.49 479.583L3929.12 478.586C3927.04 476.546 3926.63 476.215 3926.79 473.798C3932.9 472.718 3944.75 474.712 3951.77 474.777L3954.33 474.792C3955.94 473.248 3955.15 473.019 3954.45 471.368C3947.37 466.953 3937.94 464.251 3927.57 462.532L3923.43 459.219L3926.91 456.415C3936.17 452.594 3944.42 448.455 3952.8 444.127C3934.22 446.381 3917.58 447.963 3898.76 445.098C3871.75 440.986 3857.47 428.224 3844.63 416.187C3836.64 403.381 3819.2 391.489 3814.61 378.043C3834.27 386.113 3865.12 398.714 3878.75 409.263C3860.74 380.7 3761 256.017 3722.23 241.882C3718.7 240.596 3719.6 241.174 3716.95 239.444C3716.43 239.111 3715.99 238.749 3715.51 238.402C3720.27 231.878 3722.31 223.076 3716.76 216.516C3715.61 213.087 3714.07 209.796 3711.86 206.514C3704.62 195.729 3692.41 183.682 3671.6 178.802C3665.51 177.374 3658.99 177.185 3652.87 178.689C3642.64 181.203 3639.78 185.719 3636.12 190.976C3611.75 187.71 3589.1 188.484 3564.48 190.421ZM1826.36 261.176C1802.51 270.247 1798.69 281.542 1794.3 295.953C1784.72 327.396 1777.11 359.052 1768.25 390.563L1691.42 663.408C1677.69 709.755 1664.47 756.144 1651.78 802.572C1644.61 827.774 1633.67 854.043 1631.97 879.42C1631.23 890.506 1636.13 903.163 1648.57 912.284C1653.53 915.927 1661.07 918.461 1668.18 920.834C1705.19 933.18 1745.47 943.436 1783.52 954.949C1846.69 974.065 2210.21 1087.97 2237.15 1089.82C2237.8 1089.87 2238.47 1089.86 2239.13 1089.87C2258.29 1083.44 2265.61 1075.97 2270.31 1064.5C2276.05 1050.51 2278.87 1035.97 2282.7 1021.8L2301.01 955.116L2359.77 740.474L2411.48 547.799C2418.63 520.551 2431.07 488.896 2434.01 462.038C2435.24 450.832 2432.21 437.25 2420.93 427.499C2417.67 424.727 2413.22 422.395 2407.93 420.688C2362.6 405.993 2311.72 394.024 2264.62 380.77C2165.03 352.069 2064.88 323.9 1964.19 296.269C1940.92 289.738 1855.19 263.037 1834.9 261.285C1832.03 261.037 1829.25 261.115 1826.36 261.176ZM425.442 292.787C405.93 300.931 399.222 310.785 396.387 323.478C388.15 360.359 385.404 398.132 379.708 435.198L341.358 690.765L317.288 847.45C313.577 871.791 306.021 897.762 306.731 922.098C307.044 932.823 312.057 945.722 325.137 954.174C329.746 957.17 335.683 959.527 342.429 961.04C383.521 970.218 429.04 976.416 471.635 983.68C578.19 1001.45 685.017 1018.77 792.105 1035.63C819.93 1040.08 900.555 1055.23 923.416 1056.18C926.088 1056.3 927.106 1056.21 929.947 1056.14C946.321 1051.37 955.033 1044.64 960.175 1035.23C972.217 1013.19 971.197 981.191 974.338 957.752L991.167 842.765L1033.95 547.519L1044.5 471.633C1047.09 454.093 1050.76 436.372 1051.13 418.774C1051.36 409.228 1046.63 399.83 1037.45 391.589C1032.17 386.937 1026.14 383.211 1016.38 381.196C996.242 377.042 972.808 374.897 951.822 371.853L811.747 351.052C709.396 335.418 607.592 318.624 504.811 303.831C482.845 300.67 461.048 296.769 438.968 293.926C434.517 293.353 429.998 293.03 425.442 292.787Z"/><path fill="#1D314F" transform="scale(0.999756 1)" d="M3621.48 213.042C3601.23 206.33 3583.85 197.744 3564.48 190.421C3589.1 188.484 3611.75 187.71 3636.12 190.976C3639.78 185.719 3642.64 181.203 3652.87 178.689C3658.99 177.185 3665.51 177.374 3671.6 178.802C3692.41 183.682 3704.62 195.729 3711.86 206.514C3714.07 209.796 3715.61 213.087 3716.76 216.516C3703.5 209.752 3703.43 194.393 3677.92 184.516C3672.44 182.392 3665.84 180.577 3658.82 181.534C3646.99 183.147 3642.1 188.175 3636.93 193.479C3625.08 193.021 3595.62 190.083 3586.34 193.774C3591.34 199.704 3613.98 204.877 3622.75 210.444L3621.48 213.042Z"/><path fill="#E0742C" transform="scale(0.999756 1)" d="M3621.48 213.042L3622.75 210.444C3613.98 204.877 3591.34 199.704 3586.34 193.774C3595.62 190.083 3625.08 193.021 3636.93 193.479C3642.1 188.175 3646.99 183.147 3658.82 181.534C3665.84 180.577 3672.44 182.392 3677.92 184.516C3703.43 194.393 3703.5 209.752 3716.76 216.516C3722.31 223.076 3720.27 231.878 3715.51 238.402L3712.2 239.304L3711.71 241.513C3717.97 244.979 3725.67 247.36 3731.42 251.104C3769.44 275.894 3815.52 335.432 3840.87 366.354C3848.77 375.987 3855.74 386.352 3865.19 395.571C3845.51 388.618 3826.38 380.871 3809.65 372.013L3807.56 372.437L3806.49 374.421L3811.28 377.402L3813.35 376.905L3814.61 378.043C3819.2 391.489 3836.64 403.381 3844.63 416.187C3842.89 420.513 3849.47 424.536 3853.92 428.101C3862.82 435.232 3875.45 446.196 3892.34 448.284C3903.74 449.694 3915.86 450.208 3927.45 451.198C3928.02 453.104 3927.59 454.529 3926.91 456.415L3923.43 459.219L3927.57 462.532C3928.42 465.97 3942 470.849 3946.92 473.677L3954.33 474.792L3951.77 474.777C3944.75 474.712 3932.9 472.718 3926.79 473.798C3926.63 476.215 3927.04 476.546 3929.12 478.586L3925.84 479.806C3926.37 483.992 3933.97 484.574 3934.8 488.684L3930.43 490.845L3912.79 483.408C3916.31 487.639 3920.27 491.883 3923.02 496.268C3918.13 495.925 3916.97 495.897 3913.53 493.808C3904.01 488.02 3896.14 480.212 3887.85 473.851C3857.84 450.816 3825.57 422.736 3787.96 403.141C3782.45 400.274 3777.06 397.4 3768.88 397.385C3757.97 401.739 3754.05 417.956 3748.71 424.978L3747.73 426.237C3721.6 422.505 3692.84 419.4 3677.63 406.582C3646.93 380.719 3623.66 309.78 3632.06 281.07C3634.53 272.605 3645.04 265.289 3648.9 257.144L3647.19 256.456C3623.93 245.36 3620.46 238.453 3621 222.423C3621.1 219.682 3622.83 216.712 3621.99 214.056C3621.88 213.711 3621.65 213.38 3621.48 213.042Z"/><path fill="#020201" transform="scale(0.999756 1)" d="M3710.08 489.951C3723.43 510.553 3726.79 522.291 3718.44 544.103C3707.48 572.715 3693.01 601.189 3680.16 629.595L3584.85 838.275L3501.86 1019.68L3474.64 1079.77C3470.01 1089.98 3466.34 1100.75 3460.09 1110.69C3456.86 1115.82 3451.86 1120.27 3442.97 1123.19C3438.37 1124.71 3433.72 1125.66 3428.28 1124.77C3420.18 1123.45 3412.66 1119.26 3406.49 1116.35C3369.46 1098.86 3334.33 1080 3298.41 1061.87C3230.37 1028.13 3163.08 993.987 3096.53 959.44C3027.75 924.1 2954.97 890.071 2889.64 852.983C2884.1 849.841 2879.08 846.56 2875.68 842.633C2864.39 829.562 2862.26 816.128 2866.24 802.106C2873.76 775.655 2890.19 749.028 2901.62 722.903L2991.77 519.812L3081.23 316.703L3104.76 262.489C3109.56 251.536 3113.35 239.876 3121.36 229.44C3125.34 224.253 3132.84 218.422 3143.23 216.327C3149.17 215.127 3155.6 215.67 3160.75 217.603C3173.72 222.472 3186.07 229.938 3197.72 235.753C3220.64 247.173 3243.7 258.513 3266.91 269.773L3566.89 418.941C3579.59 425.273 3642.62 458.679 3655.19 461.071C3660.46 462.073 3665.53 459.792 3677.49 462.671C3681.02 464.758 3685.16 467.864 3690.84 468.172C3693.21 468.301 3695.1 468.185 3697.43 468.099C3697.84 468.253 3698.31 468.369 3698.65 468.56C3712.61 476.412 3729.01 491.468 3731.32 502.326L3729.55 503.246C3720.59 500.675 3715.28 494.482 3710.08 489.951ZM3146.95 222.418C3135.71 225.48 3129.34 228.744 3125.29 235.136C3110.54 258.437 3102.16 285.883 3091.5 309.999L3023.5 464.409L2923.68 690.219C2907.82 726.032 2889.03 762.048 2875.78 798.112C2872.52 806.975 2869.69 816.159 2874.05 825.003C2877.39 831.769 2880.59 838.866 2889.28 844.391C2906.59 855.401 2928.79 865.339 2948.37 875.313L3072.69 938.33L3304.24 1056.02C3332.34 1070.31 3392.36 1103.72 3421.46 1113.99C3427.56 1116.15 3434.66 1116.43 3441.77 1115.95C3447.38 1112.68 3451.93 1109.75 3454.49 1105.5C3465.88 1086.56 3472.37 1065.86 3481.21 1046.47L3535.93 927.757L3664.17 647.367C3675.09 623.321 3718.24 540.138 3716.14 520.367C3715.14 510.867 3711.86 501.966 3700.22 494.368C3686.62 485.502 3668.68 477.525 3653.02 469.576C3613.3 449.416 3572.22 429.99 3532.21 409.98L3311.45 300.562C3263.18 276.515 3215.76 251.565 3165.81 228.509C3159.92 225.789 3154.67 223.564 3146.95 222.418Z"/><path fill="#F9BF8B" transform="scale(0.999756 1)" d="M3441.77 1115.95C3434.66 1116.43 3427.56 1116.15 3421.46 1113.99C3392.36 1103.72 3332.34 1070.31 3304.24 1056.02L3072.69 938.33L2948.37 875.313C2928.79 865.339 2906.59 855.401 2889.28 844.391C2880.59 838.866 2877.39 831.769 2874.05 825.003C2869.69 816.159 2872.52 806.975 2875.78 798.112C2889.03 762.048 2907.82 726.032 2923.68 690.219L3023.5 464.409L3091.5 309.999C3102.16 285.883 3110.54 258.437 3125.29 235.136C3129.34 228.744 3135.71 225.48 3146.95 222.418C3154.67 223.564 3159.92 225.789 3165.81 228.509C3215.76 251.565 3263.18 276.515 3311.45 300.562L3532.21 409.98C3572.22 429.99 3613.3 449.416 3653.02 469.576C3668.68 477.525 3686.62 485.502 3700.22 494.368C3711.86 501.966 3715.14 510.867 3716.14 520.367C3718.24 540.138 3675.09 623.321 3664.17 647.367L3535.93 927.757L3481.21 1046.47C3472.37 1065.86 3465.88 1086.56 3454.49 1105.5C3451.93 1109.75 3447.38 1112.68 3441.77 1115.95ZM3159.76 289.177L3006.87 636.078L2961.2 737.915C2951.93 758.726 2943.92 780.188 2932.08 800.616C2952.71 811.356 2974.36 821.526 2995.13 832.186C3087.11 880.133 3179.94 927.632 3273.59 974.679C3303.48 989.776 3333.77 1004.71 3363.23 1020.03C3380.86 1029.2 3397.76 1038.93 3416.08 1047.7C3419.81 1047.63 3418.43 1047.92 3420.47 1047.33L3585.98 683.329C3607.68 634.446 3631.43 585.708 3651.66 536.66C3618.03 518.338 3582.28 501.221 3547.64 483.439L3274.26 345.425C3236.35 326.628 3196.67 308.483 3159.76 289.177Z"/><path fill="#1D314F" transform="scale(0.999756 1)" d="M3865.19 395.571C3855.74 386.352 3848.77 375.987 3840.87 366.354C3815.52 335.432 3769.44 275.894 3731.42 251.104C3725.67 247.36 3717.97 244.979 3711.71 241.513L3712.2 239.304L3715.51 238.402C3715.99 238.749 3716.43 239.111 3716.95 239.444C3719.6 241.174 3718.7 240.596 3722.23 241.882C3761 256.017 3860.74 380.7 3878.75 409.263C3865.12 398.714 3834.27 386.113 3814.61 378.043L3813.35 376.905L3811.28 377.402L3806.49 374.421L3807.56 372.437L3809.65 372.013C3826.38 380.871 3845.51 388.618 3865.19 395.571Z"/><path fill="#1D314F" transform="scale(0.999756 1)" d="M3647.19 256.456L3648.9 257.144C3645.04 265.289 3634.53 272.605 3632.06 281.07C3623.66 309.78 3646.93 380.719 3677.63 406.582C3692.84 419.4 3721.6 422.505 3747.73 426.237L3748.71 424.978C3754.05 417.956 3757.97 401.739 3768.88 397.385C3777.06 397.4 3782.45 400.274 3787.96 403.141C3825.57 422.736 3857.84 450.816 3887.85 473.851C3896.14 480.212 3904.01 488.02 3913.53 493.808C3916.97 495.897 3918.13 495.925 3923.02 496.268C3928.34 503.579 3932.99 510.872 3937.17 518.383C3889.33 482.898 3831.4 425.794 3769.39 399.307C3764.53 405.711 3761.56 412.532 3757.26 419.052C3754.88 422.659 3751.65 427.105 3744.18 428.525C3730.46 431.129 3703.59 422.437 3691.37 418.9C3691.12 431.138 3682.39 458.75 3697.43 468.099C3695.1 468.185 3693.21 468.301 3690.84 468.172C3685.16 467.864 3681.02 464.758 3677.49 462.671L3682.13 461.745C3688.99 454.264 3684.15 426.35 3683.79 416.605C3655.7 396.905 3644.67 366.766 3635.84 342.838C3626.03 316.221 3616.38 280.397 3647.19 256.456Z"/><path fill="#020201" transform="scale(0.999756 1)" d="M2239.13 1089.87C2238.47 1089.86 2237.8 1089.87 2237.15 1089.82C2210.21 1087.97 1846.69 974.065 1783.52 954.949C1745.47 943.436 1705.19 933.18 1668.18 920.834C1661.07 918.461 1653.53 915.927 1648.57 912.284C1636.13 903.163 1631.23 890.506 1631.97 879.42C1633.67 854.043 1644.61 827.774 1651.78 802.572C1664.47 756.144 1677.69 709.755 1691.42 663.408L1768.25 390.563C1777.11 359.052 1784.72 327.396 1794.3 295.953C1798.69 281.542 1802.51 270.247 1826.36 261.176C1829.25 261.115 1832.03 261.037 1834.9 261.285C1855.19 263.037 1940.92 289.738 1964.19 296.269C2064.88 323.9 2165.03 352.069 2264.62 380.77C2311.72 394.024 2362.6 405.993 2407.93 420.688C2413.22 422.395 2417.67 424.727 2420.93 427.499C2432.21 437.25 2435.24 450.832 2434.01 462.038C2431.07 488.896 2418.63 520.551 2411.48 547.799L2359.77 740.474L2301.01 955.116L2282.7 1021.8C2278.87 1035.97 2276.05 1050.51 2270.31 1064.5C2265.61 1075.97 2258.29 1083.44 2239.13 1089.87ZM1829.38 268.542C1813.84 273.98 1807.62 279.294 1804 288.9C1792.52 319.402 1787.01 350.993 1778.15 381.781L1713.15 612.478L1663.55 787.081C1655.04 816.804 1643.12 847.029 1638.69 876.96C1637.59 884.342 1640.2 897.415 1648.91 903.628C1654.81 907.836 1665.63 911.501 1674.09 914.283C1718.2 928.794 1764.92 941.38 1810.05 955.003L1998.56 1012.46C2077.34 1035.96 2155.08 1061.63 2236.11 1082.92C2250.35 1078.64 2258.06 1072.92 2262.2 1064.59C2273.61 1041.59 2276.4 1015.76 2282.89 992.17L2325.67 836.554L2393.93 583.439L2413.67 509.514C2417.92 494.086 2423.52 478.426 2425.91 462.891C2427.34 453.608 2426.27 443.036 2417.14 434.838C2413.54 431.596 2408.87 429.521 2402.79 427.621C2362.57 415.047 2319.61 404.458 2278.44 392.733C2174.4 362.656 2069.67 333.243 1964.27 304.5C1936.57 296.855 1858.78 271.41 1832.01 268.723C1831.14 268.635 1830.26 268.602 1829.38 268.542Z"/><path fill="#F9BF8B" transform="scale(0.999756 1)" d="M2236.11 1082.92C2155.08 1061.63 2077.34 1035.96 1998.56 1012.46L1810.05 955.003C1764.92 941.38 1718.2 928.794 1674.09 914.283C1665.63 911.501 1654.81 907.836 1648.91 903.628C1640.2 897.415 1637.59 884.342 1638.69 876.96C1643.12 847.029 1655.04 816.804 1663.55 787.081L1713.15 612.478L1778.15 381.781C1787.01 350.993 1792.52 319.402 1804 288.9C1807.62 279.294 1813.84 273.98 1829.38 268.542C1830.26 268.602 1831.14 268.635 1832.01 268.723C1858.78 271.41 1936.57 296.855 1964.27 304.5C2069.67 333.243 2174.4 362.656 2278.44 392.733C2319.61 404.458 2362.57 415.047 2402.79 427.621C2408.87 429.521 2413.54 431.596 2417.14 434.838C2426.27 443.036 2427.34 453.608 2425.91 462.891C2423.52 478.426 2417.92 494.086 2413.67 509.514L2393.93 583.439L2325.67 836.554L2282.89 992.17C2276.4 1015.76 2273.61 1041.59 2262.2 1064.59C2258.06 1072.92 2250.35 1078.64 2236.11 1082.92ZM1850.33 333.054C1840.09 364.863 1832.99 397.027 1824.18 428.959C1808.1 483.573 1792.57 538.23 1777.58 592.93C1752.2 682.016 1722.43 771.049 1700.79 860.385C1716.46 865.908 1734.1 870.129 1750.67 874.878L1831.73 898.603L2084.35 974.584C2103.29 980.332 2204.57 1014.15 2216.8 1015.35C2226.54 995.619 2229.72 974.102 2235.38 953.89L2269.05 830.449L2366.06 477.631L1850.33 333.054Z"/><path fill="#CA5235" transform="scale(0.999756 1)" d="M2932.08 800.616C2943.92 780.188 2951.93 758.726 2961.2 737.915L3006.87 636.078L3159.76 289.177C3196.67 308.483 3236.35 326.628 3274.26 345.425L3547.64 483.439C3582.28 501.221 3618.03 518.338 3651.66 536.66C3631.43 585.708 3607.68 634.446 3585.98 683.329L3420.47 1047.33C3418.43 1047.92 3419.81 1047.63 3416.08 1047.7C3397.76 1038.93 3380.86 1029.2 3363.23 1020.03C3333.77 1004.71 3303.48 989.776 3273.59 974.679C3179.94 927.632 3087.11 880.133 2995.13 832.186C2974.36 821.526 2952.71 811.356 2932.08 800.616ZM3165.91 307.007C3096.08 470.601 3024.23 633.956 2950.38 797.063C3010.08 822.827 3396.22 1026.11 3412 1028.75L3414.48 1027.41C3446.66 952.396 3483.71 877.846 3517.72 803.051C3557.04 716.578 3593.83 629.671 3634.78 543.416C3532.43 490.534 3429.27 438.087 3325.31 386.082C3288.48 367.21 3251.3 348.527 3213.78 330.035C3198.95 322.679 3182.81 312.844 3165.91 307.007Z"/><path fill="#020201" transform="scale(0.999756 1)" d="M929.947 1056.14C927.106 1056.21 926.088 1056.3 923.416 1056.18C900.555 1055.23 819.93 1040.08 792.105 1035.63C685.017 1018.77 578.19 1001.45 471.635 983.68C429.04 976.416 383.521 970.218 342.429 961.04C335.683 959.527 329.746 957.17 325.137 954.174C312.057 945.722 307.044 932.823 306.731 922.098C306.021 897.762 313.577 871.791 317.288 847.45L341.358 690.765L379.708 435.198C385.404 398.132 388.15 360.359 396.387 323.478C399.222 310.785 405.93 300.931 425.442 292.787C429.998 293.03 434.517 293.353 438.968 293.926C461.048 296.769 482.845 300.67 504.811 303.831C607.592 318.624 709.396 335.418 811.747 351.052L951.822 371.853C972.808 374.897 996.242 377.042 1016.38 381.196C1026.14 383.211 1032.17 386.937 1037.45 391.589C1046.63 399.83 1051.36 409.228 1051.13 418.774C1050.76 436.372 1047.09 454.093 1044.5 471.633L1033.95 547.519L991.167 842.765L974.338 957.752C971.197 981.191 972.217 1013.19 960.175 1035.23C955.033 1044.64 946.321 1051.37 929.947 1056.14ZM426.593 301.295C413.321 306.117 407.974 312.88 405.095 321.035C396.596 345.118 396.801 376.965 392.728 402.068C381.612 470.528 371.195 539.019 361.479 607.537L330.524 811.829C325.062 847.4 315.746 885.159 315.524 920.606C315.476 928.321 319.036 941.263 328.877 947.271C334.744 950.853 352.386 954.051 360.936 955.711C392.496 961.836 425.184 966.793 457.179 972.292C556.734 989.4 656.903 1004.98 757.005 1021.1C789.158 1026.28 906.728 1047.82 930.696 1047.7C947.601 1041.39 953.979 1033.16 957.311 1022.68C966.442 993.949 967.302 954.636 971.584 924.701L1001.47 717.817C1012.05 648.124 1021.95 578.404 1031.17 508.658C1034.98 480.475 1044.22 445.295 1043.44 417.974C1043.2 409.669 1037.83 399.655 1028 393.001C1023.96 390.266 1008.32 387.947 1001.69 386.843C893.3 368.803 782.363 354.42 673.229 337.576C613.812 328.13 554.145 319.124 494.244 310.561C472.4 307.428 448.977 302.676 426.593 301.295Z"/><path fill="#F9BF8B" transform="scale(0.999756 1)" d="M930.696 1047.7C906.728 1047.82 789.158 1026.28 757.005 1021.1C656.903 1004.98 556.734 989.4 457.179 972.292C425.184 966.793 392.496 961.836 360.936 955.711C352.386 954.051 334.744 950.853 328.877 947.271C319.036 941.263 315.476 928.321 315.524 920.606C315.746 885.159 325.062 847.4 330.524 811.829L361.479 607.537C371.195 539.019 381.612 470.528 392.728 402.068C396.801 376.965 396.596 345.118 405.095 321.035C407.974 312.88 413.321 306.117 426.593 301.295C448.977 302.676 472.4 307.428 494.244 310.561C554.145 319.124 613.812 328.13 673.229 337.576C782.363 354.42 893.3 368.803 1001.69 386.843C1008.32 387.947 1023.96 390.266 1028 393.001C1037.83 399.655 1043.2 409.669 1043.44 417.974C1044.22 445.295 1034.98 480.475 1031.17 508.658C1021.95 578.404 1012.05 648.124 1001.47 717.817L971.584 924.701C967.302 954.636 966.442 993.949 957.311 1022.68C953.979 1033.16 947.601 1041.39 930.696 1047.7ZM451.929 361.59L396.676 749.176L384.592 831.203C381.375 851.76 373.121 874.824 378.463 895.167C389.705 900.42 842.086 973.839 902.116 985.814C905.533 984.827 904.542 985.395 905.806 984.554C925.525 874.268 939.108 763.539 955.33 653.091L974.688 520.546C978.572 495.341 984.318 469.871 986.424 444.634C938.769 436.546 890.665 430.144 842.672 422.758C712.053 403.028 581.799 382.638 451.929 361.59Z"/><path fill="#5A5A7E" transform="scale(0.999756 1)" d="M2950.38 797.063C3024.23 633.956 3096.08 470.601 3165.91 307.007C3182.81 312.844 3198.95 322.679 3213.78 330.035C3251.3 348.527 3288.48 367.21 3325.31 386.082C3429.27 438.087 3532.43 490.534 3634.78 543.416C3593.83 629.671 3557.04 716.578 3517.72 803.051C3483.71 877.846 3446.66 952.396 3414.48 1027.41L3412 1028.75C3396.22 1026.11 3010.08 822.827 2950.38 797.063ZM3236.46 514.048C3204.57 540.333 3207.35 581.193 3219.55 610.331C3225.04 623.601 3233.6 636.47 3245.03 648.651C3218.97 647.653 3198.89 649.119 3178.56 658.703C3146.77 673.687 3133.01 698.924 3131.64 720.658C3129.36 756.993 3157.82 786.012 3204.43 812.01C3215.07 817.944 3234.19 829.622 3249.46 832.03C3260.02 835.265 3269.77 837.808 3282.18 838.338C3297.95 839.01 3312.43 836.159 3324.35 830.79C3352.48 818.119 3369.75 793.007 3371.99 774.033C3386.13 743.767 3366.89 707.686 3342.84 680.24C3354.28 680.477 3364.15 680.28 3374.8 677.775C3397.94 672.332 3412.64 661.056 3421.06 648.893C3440.64 629.078 3440.98 600.246 3431.92 578.91C3419.14 548.815 3378.64 520.501 3328.99 504.256C3312.83 498.971 3292.97 494.513 3273.7 497.18C3256.61 499.545 3245.03 506.284 3236.46 514.048Z"/><path fill="#CA5235" transform="scale(0.999756 1)" d="M1700.79 860.385C1722.43 771.049 1752.2 682.016 1777.58 592.93C1792.57 538.23 1808.1 483.573 1824.18 428.959C1832.99 397.027 1840.09 364.863 1850.33 333.054L2366.06 477.631L2269.05 830.449L2235.38 953.89C2229.72 974.102 2226.54 995.619 2216.8 1015.35C2204.57 1014.15 2103.29 980.332 2084.35 974.584L1831.73 898.603L1750.67 874.878C1734.1 870.129 1716.46 865.908 1700.79 860.385ZM1858.75 348.233C1850.82 374.802 1844.62 401.503 1837.11 428.104L1766.99 678.435C1751.03 735.932 1730.52 793.292 1717.13 850.955C1771.9 868.799 1829.45 884.552 1885.75 901.032C1939.88 916.878 1992.86 933.676 2046.69 949.769C2100.88 965.966 2155.81 981.536 2208.99 998.648C2238.17 896.27 2266.36 793.815 2293.56 691.287L2326.29 571.098C2334.37 542.284 2343.59 513.425 2349.67 484.473C2260.82 460.909 2173.71 435.849 2085.66 411.507C2025.35 395.22 1965.52 378.46 1906.17 361.231C1890.57 356.773 1874.12 352.84 1858.75 348.233Z"/><path fill="#FCD39F" transform="scale(0.999756 1)" d="M1717.13 850.955C1730.52 793.292 1751.03 735.932 1766.99 678.435L1837.11 428.104C1844.62 401.503 1850.82 374.802 1858.75 348.233C1874.12 352.84 1890.57 356.773 1906.17 361.231C1965.52 378.46 2025.35 395.22 2085.66 411.507C2173.71 435.849 2260.82 460.909 2349.67 484.473C2343.59 513.425 2334.37 542.284 2326.29 571.098L2293.56 691.287C2266.36 793.815 2238.17 896.27 2208.99 998.648C2155.81 981.536 2100.88 965.966 2046.69 949.769C1992.86 933.676 1939.88 916.878 1885.75 901.032C1829.45 884.552 1771.9 868.799 1717.13 850.955ZM1945.79 746.02L1942.4 746.692C1939.05 747.341 1936.56 747.525 1932.95 747.447L1931.24 748.608L1933.92 749.28C1943.78 751.801 1960.54 759.679 1971.8 758.286C1974.65 757.933 1977.42 756.72 1979.76 755.844C1996.7 760.559 2013.72 765.122 2029.64 770.76C2025.22 781.443 1999.02 828.606 2000.12 834.794L1998.52 837.196C2003 841.889 2060.82 860.002 2071.69 861.415C2072.78 861.556 2073.91 861.566 2075.02 861.642L2075.46 857.644C2079.96 858.958 2082.86 860.444 2088.09 860.116C2088.4 837.131 2090 814.156 2092.91 791.222C2105.65 795.041 2118.16 799.083 2130.75 803.029C2137.74 785.4 2140.64 767.024 2146.38 749.231C2134.03 745.221 2120.86 741.735 2108.11 738.078C2127.24 670.498 2145.37 602.841 2162.5 535.113C2134.87 527.094 2104.72 521.427 2076.78 513.576C2033.02 558.168 1988.22 602.475 1942.38 646.486C1926.64 661.912 1902.65 678.808 1892.95 695.517C1887.29 705.263 1889.44 718.761 1888.37 728.992C1907.75 734.443 1926.89 740.121 1945.79 746.02Z"/><path fill="#CA5235" transform="scale(0.999756 1)" d="M905.806 984.554C904.542 985.395 905.533 984.827 902.116 985.814C842.086 973.839 389.705 900.42 378.463 895.167C373.121 874.824 381.375 851.76 384.592 831.203L396.676 749.176L451.929 361.59C581.799 382.638 712.053 403.028 842.672 422.758C890.665 430.144 938.769 436.546 986.424 444.634C984.318 469.871 978.572 495.341 974.688 520.546L955.33 653.091C939.108 763.539 925.525 874.268 905.806 984.554ZM464.26 377.802C457.758 402.754 456.809 428.697 453.554 453.847L435.568 585.978L404.247 801.825C400.306 829.151 394.933 856.481 392.016 883.837C465.871 896.83 541.165 907.604 615.003 920.659C681.88 932.652 749.059 944.175 816.521 955.228C839.274 959.035 862.164 964.359 885.187 967.432C888.492 967.873 891.639 967.948 895.005 967.671L970.239 456.636C887.421 447.271 806.005 431.379 724.672 418.819C659.164 408.702 593.842 398.585 528.683 387.867C507.764 384.426 484.505 381.96 464.26 377.802Z"/><path fill="#ED7A55" transform="scale(0.999756 1)" d="M392.016 883.837C394.933 856.481 400.306 829.151 404.247 801.825L435.568 585.978L453.554 453.847C456.809 428.697 457.758 402.754 464.26 377.802C484.505 381.96 507.764 384.426 528.683 387.867C593.842 398.585 659.164 408.702 724.672 418.819C806.005 431.379 887.421 447.271 970.239 456.636L895.005 967.671C891.639 967.948 888.492 967.873 885.187 967.432C862.164 964.359 839.274 959.035 816.521 955.228C749.059 944.175 681.88 932.652 615.003 920.659C541.165 907.604 465.871 896.83 392.016 883.837ZM694.3 499.209L699.78 497.335C692.737 492.92 669.992 491.878 659.173 491.375C630.847 490.06 593.069 493.079 571.135 503.249C567.862 504.767 565.45 506.66 563.11 508.576L564.406 511.22C557.148 515.983 549.773 520.795 543.391 525.896C560.455 542.329 568.237 560.325 583.918 576.718C585.539 578.413 585.507 578.74 589.023 579.412C586.736 581.436 585.791 581.302 586.835 583.723C601.758 580.199 612.957 562.071 634.876 555.638C644.398 552.844 655.532 551.456 666.205 553.168C678.561 555.15 685.325 560.372 690.742 566.151L691.555 567.035L694.895 566.862C715.691 589.108 704.689 623.469 690.105 645.93C661.296 690.298 574.42 744.675 516.565 781.347C516.98 788.067 518.417 795.234 517.666 801.925C514.396 805.224 515.194 807.444 515.709 810.976L516.432 816.266C594.217 826.434 673.344 838.172 741.563 861.06C741.835 857.482 742.388 853.875 741.797 850.306L740.426 850.211C740.443 838.175 744.239 825.038 747.743 813.132L748.78 817.729C755.043 810.475 753.282 795.11 754.173 786.724C734.694 783.478 657.092 771.477 645.524 765.085C642.796 763.578 644.142 763.985 640.727 762.996C640.097 762.814 639.429 762.67 638.779 762.506C680.805 739.802 719.947 708.235 746.866 679.978C785.369 639.559 804.532 590.045 776.188 546.189C761.125 522.884 735.764 510.004 694.3 499.209Z"/><path fill="#020201" transform="scale(0.999756 1)" d="M3926.91 456.415C3927.59 454.529 3928.02 453.104 3927.45 451.198C3915.86 450.208 3903.74 449.694 3892.34 448.284C3875.45 446.196 3862.82 435.232 3853.92 428.101C3849.47 424.536 3842.89 420.513 3844.63 416.187C3857.47 428.224 3871.75 440.986 3898.76 445.098C3917.58 447.963 3934.22 446.381 3952.8 444.127C3944.42 448.455 3936.17 452.594 3926.91 456.415Z"/><path fill="#1D314F" transform="scale(0.999756 1)" d="M3954.33 474.792L3946.92 473.677C3942 470.849 3928.42 465.97 3927.57 462.532C3937.94 464.251 3947.37 466.953 3954.45 471.368C3955.15 473.019 3955.94 473.248 3954.33 474.792Z"/><path fill="#1D314F" transform="scale(0.999756 1)" d="M3930.43 490.845L3934.8 488.684C3933.97 484.574 3926.37 483.992 3925.84 479.806L3929.12 478.586L3930.49 479.583C3937.8 484.801 3948.61 489.097 3954.18 494.772L3952.8 495.846C3944.46 495.077 3937.37 493.386 3930.43 490.845Z"/><path fill="#CA5235" transform="scale(0.999756 1)" d="M694.3 499.209C658.582 493.517 622.725 492.576 588.851 502.09C579.87 504.612 572.207 507.824 564.406 511.22L563.11 508.576C565.45 506.66 567.862 504.767 571.135 503.249C593.069 493.079 630.847 490.06 659.173 491.375C669.992 491.878 692.737 492.92 699.78 497.335L694.3 499.209Z"/><path fill="#5A5A7E" transform="scale(0.999756 1)" d="M564.406 511.22C572.207 507.824 579.87 504.612 588.851 502.09C622.725 492.576 658.582 493.517 694.3 499.209C735.764 510.004 761.125 522.884 776.188 546.189C804.532 590.045 785.369 639.559 746.866 679.978C719.947 708.235 680.805 739.802 638.779 762.506C635.59 764.688 633.045 765.446 633.375 768.3C661.597 776.037 718.896 785.365 750.919 790.665C749.833 798.11 748.128 805.677 747.743 813.132C744.239 825.038 740.443 838.175 740.426 850.211C739.502 852.694 740.489 853.041 736.286 854.526C706.948 846.576 677.637 837.763 646.359 832.049C622.195 827.635 597.365 823.46 572.763 819.789C555.615 817.23 537.971 815.348 521.262 812.066C517.172 809.108 517.906 805.437 517.666 801.925C518.417 795.234 516.98 788.067 516.565 781.347C574.42 744.675 661.296 690.298 690.105 645.93C704.689 623.469 715.691 589.108 694.895 566.862C690.141 560.113 683.824 553.042 670.818 549.707C661.591 547.341 651.171 547.77 641.849 549.761C619.406 554.554 599.282 568.177 589.023 579.412C585.507 578.74 585.539 578.413 583.918 576.718C568.237 560.325 560.455 542.329 543.391 525.896C549.773 520.795 557.148 515.983 564.406 511.22Z"/><path fill="#CA5235" transform="scale(0.999756 1)" d="M3236.46 514.048C3245.03 506.284 3256.61 499.545 3273.7 497.18C3292.97 494.513 3312.83 498.971 3328.99 504.256C3378.64 520.501 3419.14 548.815 3431.92 578.91C3440.98 600.246 3440.64 629.078 3421.06 648.893C3420.4 648.368 3419.28 646.877 3419.38 646.277C3419.83 643.649 3423.24 639.935 3424.57 637.268C3428.25 629.864 3431.25 622.112 3432.87 614.504C3434.94 604.799 3432.93 593.771 3429.54 584.187C3419.24 555.053 3381.62 527.067 3335.18 510.563C3307.89 500.868 3281.58 496.185 3253.77 507.702C3247.55 510.277 3244.51 513.22 3236.46 514.048Z"/><path fill="#ED7A55" transform="scale(0.999756 1)" d="M3245.03 648.651C3233.6 636.47 3225.04 623.601 3219.55 610.331C3207.35 581.193 3204.57 540.333 3236.46 514.048C3244.51 513.22 3247.55 510.277 3253.77 507.702C3281.58 496.185 3307.89 500.868 3335.18 510.563C3381.62 527.067 3419.24 555.053 3429.54 584.187C3432.93 593.771 3434.94 604.799 3432.87 614.504C3431.25 622.112 3428.25 629.864 3424.57 637.268C3423.24 639.935 3419.83 643.649 3419.38 646.277C3419.28 646.877 3420.4 648.368 3421.06 648.893C3412.64 661.056 3397.94 672.332 3374.8 677.775C3364.15 680.28 3354.28 680.477 3342.84 680.24C3366.89 707.686 3386.13 743.767 3371.99 774.033L3371.04 771.579C3363.95 790.588 3348.93 818.749 3316.12 830.04C3303.28 834.461 3289.64 834.931 3274.92 833.108C3265.83 831.98 3258.95 830.862 3249.46 832.03C3234.19 829.622 3215.07 817.944 3204.43 812.01C3157.82 786.012 3129.36 756.993 3131.64 720.658C3133.01 698.924 3146.77 673.687 3178.56 658.703C3198.89 649.119 3218.97 647.653 3245.03 648.651ZM3290.68 566.574L3289.05 564.788C3282.36 581.947 3285.67 630.82 3302.82 644.467C3305.69 646.752 3309.35 648.432 3314.79 648.672C3324.58 649.104 3335.04 644.011 3341.1 640.524C3363.34 627.716 3370.9 608.865 3368.64 591.949C3368.26 589.07 3368.35 586.086 3364.25 584.08C3361.72 579.789 3359.93 575.38 3357.21 571.121C3352.58 563.86 3340.33 551.186 3325.78 548.221C3320.43 547.131 3316.37 547.276 3311.19 548.578C3301.89 550.915 3297.52 556.161 3294.39 560.938L3290.68 566.574ZM3270.04 675.727L3270.55 673.953C3266.5 673.237 3267.17 673.385 3263.59 674.299C3258.64 675.561 3252.99 677.839 3250.78 680.602C3249.86 681.752 3250.25 682.989 3250.53 684.177C3236.04 694.633 3226.2 704.745 3217.76 716.885L3216.44 715.586C3204.21 732.629 3206.57 757.762 3220.49 774.369C3226.54 781.594 3233.85 787.456 3248.55 790.044C3254.67 791.121 3260.08 791.664 3266.53 791.16L3267.06 789.915C3262.22 788.566 3259.6 788.854 3254.45 788.476C3253.79 788.428 3253.17 788.28 3252.53 788.183C3255.56 787.924 3258.59 787.661 3261.58 787.279C3271.69 785.985 3279.2 781.22 3284.18 776.639C3313.94 749.267 3285.78 703.315 3270.04 675.727Z"/><path fill="#5A5A7E" transform="scale(0.999756 1)" d="M1945.79 746.02C1926.89 740.121 1907.75 734.443 1888.37 728.992C1889.44 718.761 1887.29 705.263 1892.95 695.517C1902.65 678.808 1926.64 661.912 1942.38 646.486C1988.22 602.475 2033.02 558.168 2076.78 513.576C2104.72 521.427 2134.87 527.094 2162.5 535.113C2145.37 602.841 2127.24 670.498 2108.11 738.078C2120.86 741.735 2134.03 745.221 2146.38 749.231C2140.64 767.024 2137.74 785.4 2130.75 803.029C2118.16 799.083 2105.65 795.041 2092.91 791.222C2090 814.156 2088.4 837.131 2088.09 860.116C2082.86 860.444 2079.96 858.958 2075.46 857.644C2049.61 852.014 2024.12 842.366 2000.12 834.794C1999.02 828.606 2025.22 781.443 2029.64 770.76C2013.72 765.122 1996.7 760.559 1979.76 755.844C1968.18 752.869 1957.01 749.348 1945.79 746.02ZM2070.59 591.775C2035.23 626.098 2004.3 663.206 1963.7 695.81C1975.01 698.722 1986.27 701.608 1997.19 704.91C2011.91 709.505 2026.54 714.238 2041.6 718.523C2045.05 699.01 2074.8 601.59 2070.59 591.775Z"/><path fill="#CA5235" transform="scale(0.999756 1)" d="M589.023 579.412C599.282 568.177 619.406 554.554 641.849 549.761C651.171 547.77 661.591 547.341 670.818 549.707C683.824 553.042 690.141 560.113 694.895 566.862L691.555 567.035L690.742 566.151C685.325 560.372 678.561 555.15 666.205 553.168C655.532 551.456 644.398 552.844 634.876 555.638C612.957 562.071 601.758 580.199 586.835 583.723C585.791 581.302 586.736 581.436 589.023 579.412Z"/><path fill="#5A5A7E" transform="scale(0.999756 1)" d="M3290.68 566.574L3294.39 560.938C3297.52 556.161 3301.89 550.915 3311.19 548.578C3316.37 547.276 3320.43 547.131 3325.78 548.221C3340.33 551.186 3352.58 563.86 3357.21 571.121C3359.93 575.38 3361.72 579.789 3364.25 584.08C3363.92 587.515 3365.4 591.23 3365.66 594.705C3366.6 607.388 3361.18 621.651 3347.1 632.109C3340.43 637.059 3326.88 643.991 3314.53 644.424C3311.92 644.515 3308.24 644.754 3306.27 643.655C3288.71 633.875 3287.97 580.768 3290.68 566.574Z"/><path fill="#CA5235" transform="scale(0.999756 1)" d="M3364.25 584.08C3368.35 586.086 3368.26 589.07 3368.64 591.949C3370.9 608.865 3363.34 627.716 3341.1 640.524C3335.04 644.011 3324.58 649.104 3314.79 648.672C3309.35 648.432 3305.69 646.752 3302.82 644.467C3285.67 630.82 3282.36 581.947 3289.05 564.788L3290.68 566.574C3287.97 580.768 3288.71 633.875 3306.27 643.655C3308.24 644.754 3311.92 644.515 3314.53 644.424C3326.88 643.991 3340.43 637.059 3347.1 632.109C3361.18 621.651 3366.6 607.388 3365.66 594.705C3365.4 591.23 3363.92 587.515 3364.25 584.08Z"/><path fill="#FCD39F" transform="scale(0.999756 1)" d="M1963.7 695.81C2004.3 663.206 2035.23 626.098 2070.59 591.775C2074.8 601.59 2045.05 699.01 2041.6 718.523C2026.54 714.238 2011.91 709.505 1997.19 704.91C1986.27 701.608 1975.01 698.722 1963.7 695.81Z"/><path fill="#CA5235" transform="scale(0.999756 1)" d="M3270.04 675.727C3262.94 678.34 3256.63 680.931 3250.53 684.177C3250.25 682.989 3249.86 681.752 3250.78 680.602C3252.99 677.839 3258.64 675.561 3263.59 674.299C3267.17 673.385 3266.5 673.237 3270.55 673.953L3270.04 675.727Z"/><path fill="#5A5A7E" transform="scale(0.999756 1)" d="M3250.53 684.177C3256.63 680.931 3262.94 678.34 3270.04 675.727C3285.78 703.315 3313.94 749.267 3284.18 776.639C3279.2 781.22 3271.69 785.985 3261.58 787.279C3258.59 787.661 3255.56 787.924 3252.53 788.183C3242.53 785.151 3234.89 781.796 3228.46 776.695C3207.22 759.859 3211.18 735.71 3217.76 716.885C3226.2 704.745 3236.04 694.633 3250.53 684.177Z"/><path fill="#CA5235" transform="scale(0.999756 1)" d="M3252.53 788.183C3253.17 788.28 3253.79 788.428 3254.45 788.476C3259.6 788.854 3262.22 788.566 3267.06 789.915L3266.53 791.16C3260.08 791.664 3254.67 791.121 3248.55 790.044C3233.85 787.456 3226.54 781.594 3220.49 774.369C3206.57 757.762 3204.21 732.629 3216.44 715.586L3217.76 716.885C3211.18 735.71 3207.22 759.859 3228.46 776.695C3234.89 781.796 3242.53 785.151 3252.53 788.183Z"/><path fill="#F9BF8B" transform="scale(0.999756 1)" d="M1979.76 755.844C1977.42 756.72 1974.65 757.933 1971.8 758.286C1960.54 759.679 1943.78 751.801 1933.92 749.28L1931.24 748.608L1932.95 747.447C1936.56 747.525 1939.05 747.341 1942.4 746.692L1945.79 746.02C1957.01 749.348 1968.18 752.869 1979.76 755.844Z"/><path fill="#CA5235" transform="scale(0.999756 1)" d="M638.779 762.506C639.429 762.67 640.097 762.814 640.727 762.996C644.142 763.985 642.796 763.578 645.524 765.085C657.092 771.477 734.694 783.478 754.173 786.724C753.282 795.11 755.043 810.475 748.78 817.729L747.743 813.132C748.128 805.677 749.833 798.11 750.919 790.665C718.896 785.365 661.597 776.037 633.375 768.3C633.045 765.446 635.59 764.688 638.779 762.506Z"/><path fill="#CA5235" transform="scale(0.999756 1)" d="M3249.46 832.03C3258.95 830.862 3265.83 831.98 3274.92 833.108C3289.64 834.931 3303.28 834.461 3316.12 830.04C3348.93 818.749 3363.95 790.588 3371.04 771.579L3371.99 774.033C3369.75 793.007 3352.48 818.119 3324.35 830.79C3312.43 836.159 3297.95 839.01 3282.18 838.338C3269.77 837.808 3260.02 835.265 3249.46 832.03Z"/><path fill="#CA5235" transform="scale(0.999756 1)" d="M516.432 816.266L515.709 810.976C515.194 807.444 514.396 805.224 517.666 801.925C517.906 805.437 517.172 809.108 521.262 812.066C537.971 815.348 555.615 817.23 572.763 819.789C597.365 823.46 622.195 827.635 646.359 832.049C677.637 837.763 706.948 846.576 736.286 854.526C740.489 853.041 739.502 852.694 740.426 850.211L741.797 850.306C742.388 853.875 741.835 857.482 741.563 861.06C673.344 838.172 594.217 826.434 516.432 816.266Z"/><path fill="#F9BF8B" transform="scale(0.999756 1)" d="M2075.46 857.644L2075.02 861.642C2073.91 861.566 2072.78 861.556 2071.69 861.415C2060.82 860.002 2003 841.889 1998.52 837.196L2000.12 834.794C2024.12 842.366 2049.61 852.014 2075.46 857.644Z"/><path fill="#020201" transform="scale(0.999756 1)" d="M1093.64 1202.24L1126.54 1006.14C1129.63 988.326 1132.54 970.504 1135.27 952.675C1137.02 941.446 1137.77 929.791 1141.85 918.725C1145.01 910.144 1149.84 900.658 1162.79 894.654C1166.72 892.828 1173.03 890.973 1178.43 890.886C1196.22 890.601 1397.89 929.698 1430.88 935.618C1510.88 949.979 1591.23 963.708 1671.04 978.395C1698.8 983.503 1727.31 988.132 1754.63 993.801C1760.16 994.948 1764.8 996.136 1768.72 998.555C1781.07 1006.18 1786.29 1016.02 1787.49 1025.8C1789.23 1039.99 1785.39 1054.63 1783.12 1068.77L1771.24 1140.03L1745.88 1298.46C1740.99 1328.99 1734.84 1359.58 1731.12 1390.15C1725.02 1401.81 1722.25 1438.68 1719.89 1452.52L1699.26 1568.43C1695.44 1589.7 1693.25 1611.4 1687.35 1632.53C1684.88 1641.41 1678.6 1656.49 1663.38 1661.49C1656.91 1663.62 1651.17 1663 1644.33 1662.08C1621.82 1659.05 1599.64 1654.39 1577.71 1650.37C1544.82 1644.32 1511.82 1638.46 1478.7 1632.76C1342.43 1608.56 1205.86 1584.82 1068.99 1561.57C1054.48 1552.53 1047.11 1543.42 1045.05 1531.57C1042.32 1515.86 1046.95 1499.55 1049.41 1483.88L1059.05 1421.82L1093.64 1202.24ZM1170.53 898.455C1158.36 905.124 1151.77 911.91 1148.77 921.046C1139.13 950.384 1136.95 986.708 1131.67 1016.97L1094.89 1242.38L1063.77 1438.79C1059.73 1465.89 1050.41 1498.64 1051.69 1525.33C1052.19 1535.83 1058.37 1544.72 1070.3 1553.1L1475.53 1624.09C1532.05 1633.86 1587.92 1645.99 1645.13 1654.42C1651 1655.29 1655.35 1655.59 1661.35 1654.78C1671.33 1648.52 1676.78 1643.03 1679.17 1634.93C1684.79 1615.92 1686.53 1596.27 1689.78 1577.11L1705.46 1488.74L1753.71 1201.98L1772.04 1090.36C1775.44 1071.21 1784.71 1042.3 1781.42 1024.49C1780.09 1017.31 1774.72 1008.95 1763.76 1004.22C1750.86 998.654 1687.7 989.088 1666.99 985.345L1394.33 936.951L1245.36 910.086C1224.59 906.426 1203.1 901.628 1181.88 898.964C1178.22 898.504 1175.05 898.497 1171.31 898.466C1171.05 898.464 1170.79 898.459 1170.53 898.455Z"/><path fill="#F9BF8B" transform="scale(0.999756 1)" d="M1070.3 1553.1C1058.37 1544.72 1052.19 1535.83 1051.69 1525.33C1050.41 1498.64 1059.73 1465.89 1063.77 1438.79L1094.89 1242.38L1131.67 1016.97C1136.95 986.708 1139.13 950.384 1148.77 921.046C1151.77 911.91 1158.36 905.124 1170.53 898.455C1170.79 898.459 1171.05 898.464 1171.31 898.466C1175.05 898.497 1178.22 898.504 1181.88 898.964C1203.1 901.628 1224.59 906.426 1245.36 910.086L1394.33 936.951L1666.99 985.345C1687.7 989.088 1750.86 998.654 1763.76 1004.22C1774.72 1008.95 1780.09 1017.31 1781.42 1024.49C1784.71 1042.3 1775.44 1071.21 1772.04 1090.36L1753.71 1201.98L1705.46 1488.74L1689.78 1577.11C1686.53 1596.27 1684.79 1615.92 1679.17 1634.93C1676.78 1643.03 1671.33 1648.52 1661.35 1654.78C1655.35 1655.59 1651 1655.29 1645.13 1654.42C1587.92 1645.99 1532.05 1633.86 1475.53 1624.09L1070.3 1553.1ZM1193.35 957.71L1130.66 1371.05C1124.21 1414.68 1113.87 1458.43 1109.36 1502.09C1176.12 1512.81 1242.02 1525.63 1308.09 1537.49L1517.06 1574.15C1533.03 1577.03 1612.7 1593.99 1623.95 1593.87C1625.4 1593.86 1626.67 1593.34 1628.02 1593.08L1631.39 1589.39L1699.39 1195.91C1707.31 1149.54 1718.62 1103.08 1724.52 1056.65C1631.21 1038.21 1536.71 1022.11 1442.87 1004.53C1359.93 988.984 1277.23 971.778 1193.35 957.71Z"/><path fill="#CA5235" transform="scale(0.999756 1)" d="M1109.36 1502.09C1113.87 1458.43 1124.21 1414.68 1130.66 1371.05L1193.35 957.71C1277.23 971.778 1359.93 988.984 1442.87 1004.53C1536.71 1022.11 1631.21 1038.21 1724.52 1056.65C1718.62 1103.08 1707.31 1149.54 1699.39 1195.91L1631.39 1589.39L1628.02 1593.08C1626.67 1593.34 1625.4 1593.86 1623.95 1593.87C1612.7 1593.99 1533.03 1577.03 1517.06 1574.15L1308.09 1537.49C1242.02 1525.63 1176.12 1512.81 1109.36 1502.09ZM1204.57 973.67C1199.47 996.629 1197.3 1019.89 1194.11 1042.95C1188.88 1082.16 1183.01 1121.35 1176.5 1160.51L1141.8 1385.34C1136.61 1420.34 1128.37 1455.62 1125.48 1490.66C1177.39 1501.37 1230.31 1510.03 1283.11 1519.37L1530.39 1562.72C1548.18 1565.76 1566.64 1568.43 1584.1 1571.91C1594.84 1574.06 1604.44 1577.72 1616.04 1578.45L1619.2 1577.29L1619.69 1574.97C1627.15 1507.04 1642.72 1439.07 1654.98 1371.32C1671.63 1269.95 1689.45 1168.64 1708.46 1067.38C1661.24 1059.66 1614.98 1049.56 1568.37 1040.82C1514.06 1030.64 1459.23 1021.58 1405.32 1010.79C1359.66 1001.39 1313.61 992.517 1267.22 984.167C1246.71 980.493 1225.64 976.233 1204.57 973.67Z"/><path fill="#ED7A55" transform="scale(0.999756 1)" d="M1125.48 1490.66C1128.37 1455.62 1136.61 1420.34 1141.8 1385.34L1176.5 1160.51C1183.01 1121.35 1188.88 1082.16 1194.11 1042.95C1197.3 1019.89 1199.47 996.629 1204.57 973.67C1225.64 976.233 1246.71 980.493 1267.22 984.167C1313.61 992.517 1359.66 1001.39 1405.32 1010.79C1459.23 1021.58 1514.06 1030.64 1568.37 1040.82C1614.98 1049.56 1661.24 1059.66 1708.46 1067.38C1689.45 1168.64 1671.63 1269.95 1654.98 1371.32C1642.72 1439.07 1627.15 1507.04 1619.69 1574.97L1619.2 1577.29L1616.04 1578.45C1604.44 1577.72 1594.84 1574.06 1584.1 1571.91C1566.64 1568.43 1548.18 1565.76 1530.39 1562.72L1283.11 1519.37C1230.31 1510.03 1177.39 1501.37 1125.48 1490.66ZM1440.07 1103.79C1443.39 1103.58 1444.25 1103.96 1446.43 1102.53C1441.09 1099.63 1425.99 1096.48 1418.29 1096.17C1396.74 1095.3 1362.1 1102.22 1347.18 1110.05C1343.7 1111.88 1341.6 1113.61 1339.45 1115.91L1340.76 1118.06C1334.5 1123.55 1328.62 1129.07 1323.05 1134.76L1319.05 1134.61C1314.24 1138.81 1312.77 1144 1310.72 1148.74C1300.6 1172.26 1301.15 1196.69 1312.33 1220.08C1318.69 1233.59 1328.33 1244.7 1343.48 1256.09C1316.15 1266.2 1286.41 1281.82 1282.1 1300.2C1281.79 1301.53 1282.4 1302.54 1283.01 1303.81C1283.11 1304.01 1283.19 1304.21 1283.28 1304.42C1275.01 1324.32 1270.55 1345.69 1276.62 1365.93C1278.83 1373.32 1284.02 1381.05 1285.31 1388.36C1282.73 1397.74 1295.8 1408.67 1306.18 1416.02C1329.15 1432.29 1363.15 1445.8 1402.09 1448.82C1430.1 1450.98 1458.09 1447.52 1480.52 1438.29C1488.97 1434.82 1502.69 1428.76 1504.92 1423.16C1505.38 1422 1504.18 1421.36 1503.22 1420.36C1508.44 1414.87 1513.49 1409.41 1517.23 1403.59C1537.02 1372.75 1533.36 1335.93 1510.61 1305.73C1505.24 1298.6 1494.8 1292.39 1488.38 1285.49L1487.12 1284.12C1487.21 1283.59 1487.42 1283.07 1487.39 1282.54C1487.32 1281.24 1485.41 1277.92 1486.77 1276.76C1488.14 1275.6 1493.12 1274.03 1495.42 1273.03C1510.98 1266.27 1521.62 1260.57 1530.5 1250.83C1549.93 1229.5 1557.07 1187.67 1542.01 1165.43L1539.24 1165.51C1536.23 1162.26 1534.67 1158.22 1532.19 1154.79C1513.25 1128.49 1488.52 1115.36 1440.07 1103.79Z"/><path fill="#CA5235" transform="scale(0.999756 1)" d="M1440.07 1103.79C1411.79 1100.29 1386.06 1100.71 1360.81 1109.13C1353.37 1111.62 1347.15 1114.9 1340.76 1118.06L1339.45 1115.91C1341.6 1113.61 1343.7 1111.88 1347.18 1110.05C1362.1 1102.22 1396.74 1095.3 1418.29 1096.17C1425.99 1096.48 1441.09 1099.63 1446.43 1102.53C1444.25 1103.96 1443.39 1103.58 1440.07 1103.79Z"/><path fill="#5A5A7E" transform="scale(0.999756 1)" d="M1340.76 1118.06C1347.15 1114.9 1353.37 1111.62 1360.81 1109.13C1386.06 1100.71 1411.79 1100.29 1440.07 1103.79C1488.52 1115.36 1513.25 1128.49 1532.19 1154.79C1534.67 1158.22 1536.23 1162.26 1539.24 1165.51C1549.48 1193.94 1551.95 1230.22 1519.22 1255.25C1507.1 1264.52 1491.08 1270.52 1471.9 1275.17L1487.12 1284.12L1488.38 1285.49C1494.8 1292.39 1505.24 1298.6 1510.61 1305.73C1533.36 1335.93 1537.02 1372.75 1517.23 1403.59C1513.49 1409.41 1508.44 1414.87 1503.22 1420.36C1491.47 1429.44 1476.37 1437.03 1456.94 1441.42C1431.06 1447.25 1400.75 1446.37 1374.99 1440.79C1329.82 1431.02 1303.18 1411.38 1285.31 1388.36C1284.02 1381.05 1278.83 1373.32 1276.62 1365.93C1270.55 1345.69 1275.01 1324.32 1283.28 1304.42C1299.52 1281.25 1311.27 1271.52 1352.03 1258.45C1350.38 1253.1 1335.96 1245.71 1330.92 1240.39C1300.61 1208.41 1302.22 1168.01 1323.05 1134.76C1328.62 1129.07 1334.5 1123.55 1340.76 1118.06ZM1417.07 1150.38C1400.33 1155.85 1394.37 1162.62 1389.97 1172.57C1381.29 1192.19 1383.45 1222.19 1404.6 1239.57C1409.47 1243.57 1417.89 1248.75 1427.18 1249.86C1430.93 1250.31 1434.28 1250.34 1438.09 1250.28C1458.26 1241.87 1463.51 1229.39 1466.41 1216.53C1470.41 1198.77 1470.56 1173.47 1447.62 1158.95C1440.36 1154.35 1430.75 1150.68 1419.07 1150.37C1418.4 1150.35 1417.74 1150.37 1417.07 1150.38ZM1387.79 1288.02C1369.98 1293.42 1362.72 1301.48 1357.62 1311.73C1347.59 1331.9 1346.05 1362.36 1366.47 1380.99C1373.33 1387.25 1384.3 1392.82 1397.94 1394.63C1403.35 1395.35 1408.99 1395.3 1414.52 1395.27C1432.22 1389.52 1440.91 1382.89 1446.05 1372.22C1456.02 1351.53 1448.84 1321.2 1427.24 1302.95C1419.66 1296.55 1407.91 1289.82 1393.15 1288.36C1390.2 1288.06 1390.35 1288.1 1387.79 1288.02Z"/><path fill="#CA5235" transform="scale(0.999756 1)" d="M1343.48 1256.09C1328.33 1244.7 1318.69 1233.59 1312.33 1220.08C1301.15 1196.69 1300.6 1172.26 1310.72 1148.74C1312.77 1144 1314.24 1138.81 1319.05 1134.61L1323.05 1134.76C1302.22 1168.01 1300.61 1208.41 1330.92 1240.39C1335.96 1245.71 1350.38 1253.1 1352.03 1258.45C1311.27 1271.52 1299.52 1281.25 1283.28 1304.42C1283.19 1304.21 1283.11 1304.01 1283.01 1303.81C1282.4 1302.54 1281.79 1301.53 1282.1 1300.2C1286.41 1281.82 1316.15 1266.2 1343.48 1256.09Z"/><path fill="#88A8DB" transform="scale(0.999756 1)" d="M3508.99 1409.64C3563.66 1330.12 3651.83 1250.03 3781.2 1198C3846.66 1171.67 3931.27 1150.07 4015.3 1149.14C4042.13 1148.85 4069.44 1151.13 4096 1153L4096 1969.44C4083.64 1969.05 4071.04 1969.29 4058.65 1969.28C4054.17 1944.58 4052.06 1921.15 4064.78 1897.01C4056.22 1905.25 4044.87 1912.76 4034.8 1920.52C4014.85 1935.89 4000.21 1950.61 3988.49 1968.16C3978.87 1967.59 3970.38 1967.44 3960.71 1967.87C3962.45 1958.51 3962.34 1949.01 3963.86 1939.61C3969.85 1902.7 3986.93 1867.53 4033.47 1839.01C4013.06 1845.87 3991.92 1852.47 3973.59 1860.83C3913.57 1888.23 3877.84 1931.61 3856.64 1970.92C3852.24 1904 3883.69 1812.79 3949.22 1755.1C3957.1 1748.51 3968.35 1742.55 3978.14 1736.73C3964.02 1741.51 3950.91 1747.34 3937.63 1752.74C3857.34 1776.77 3804.8 1847.13 3780.98 1892.72C3774.91 1904.39 3769.51 1916.16 3764.79 1928C3755.42 1891.93 3726.18 1847.33 3675.68 1821.18C3664.76 1814.98 3654.1 1808.42 3641.34 1803.25L3639.44 1803.3C3647.19 1811.63 3659.09 1818.55 3666.98 1826.98C3704.63 1870.58 3727.87 1922.63 3710.34 1970.41C3702.96 1970.27 3695.57 1970.19 3688.19 1970.15C3673.32 1921.62 3637.07 1888.1 3576.13 1851.61C3563.84 1844.26 3550.19 1834.8 3535.35 1829.05C3534.78 1828.83 3534.14 1828.66 3533.53 1828.46C3520.5 1821.41 3507.75 1813.97 3493.38 1807.66C3504.63 1816.74 3515.65 1825.18 3525.41 1834.77C3562.07 1877.73 3578.07 1919.54 3564.21 1966.52C3548.86 1966.82 3532.62 1963.19 3516.68 1963.1C3506.77 1961.73 3496.85 1961.41 3486.69 1961C3452.08 1959.63 3415.45 1957.1 3380.76 1959.28C3382.73 1937.02 3385.68 1914.6 3400.01 1893.45C3362.95 1914.76 3336.26 1936.28 3309.92 1961.41C3310.4 1895.03 3349.34 1824.97 3416.44 1768.69C3432.37 1755.33 3451.74 1742.79 3470.44 1730.47C3484.68 1722.41 3501.66 1715.84 3515.42 1707.7L3513.99 1707.22C3494.72 1712.03 3477.16 1719.2 3459.51 1725.46C3442.7 1729.79 3425.42 1738.66 3411.9 1745.42C3333.34 1784.74 3281.55 1837.92 3246.62 1891.36C3240.7 1900.42 3217.28 1954.67 3214.36 1956.73C3209.56 1957.66 3208.34 1957.26 3203.29 1956.61C3198.3 1953.01 3200.18 1941.04 3199.83 1936.41C3198.04 1912.93 3193.71 1890.25 3185.08 1867.18C3166.88 1818.48 3138.99 1771.21 3089.88 1728.5C3081.86 1721.52 3073.94 1710.67 3063.19 1705.15C3062.85 1707.74 3063.62 1708.1 3065.65 1710.42C3076.71 1723.02 3082.31 1738.98 3087.98 1752.59C3105.47 1794.93 3113.93 1838.15 3113.19 1881.47C3112.73 1907.06 3108.91 1932.57 3107.67 1958.13C3100.22 1957.85 3092.69 1957.69 3085.28 1957.18C3072.23 1942.24 3059.04 1927.4 3042.68 1913.36C3028.06 1900.8 3011 1889.08 2996.21 1876.58C3005.2 1889.07 3032.86 1945.6 3021.01 1957.82C3019.62 1959.25 3016.47 1959.05 3013.74 1959.34C3006.92 1958.79 3000.11 1958.93 2993.23 1958.97C2963.98 1958.77 2931.84 1957.55 2903.27 1961C2886.77 1960.93 2870.2 1960.86 2853.78 1961.82C2854.78 1935.73 2868.39 1904.1 2897.99 1882.71C2834.7 1902 2809.21 1922.31 2783.26 1957.69C2799.02 1885.62 2818.91 1811.23 2905.24 1751.88C2798.98 1784.7 2748.61 1841.44 2718.82 1901.71C2712.96 1913.56 2707.48 1925.65 2703.48 1937.72C2700.47 1946.82 2700.35 1957.86 2694.38 1966.46C2686.18 1968.16 2678.01 1969.32 2669.46 1970.42C2656.68 1972.34 2642.64 1973.45 2629.37 1973.8C2609.45 1976.81 2588.32 1976.84 2568.33 1980.13C2566.8 1947.07 2580.54 1912.69 2605.54 1882.43L2621.26 1869.53C2612.56 1873.31 2603.96 1877.14 2595.44 1881.03C2536.13 1905.65 2503.6 1954.67 2477.82 1991.16C2477.74 1916.53 2533.16 1794.74 2630.49 1738.84C2629.77 1739.03 2629.04 1739.21 2628.34 1739.42C2607.16 1745.55 2587.11 1755.73 2570.22 1764.73C2479.25 1813.19 2431.89 1878.31 2395.24 1942.24C2388.24 1889.95 2354.2 1823.47 2285.16 1784.51C2274.44 1779.02 2263.85 1773.44 2252.72 1768.18C2262.44 1775.98 2273.52 1783.6 2281.35 1791.97C2337.29 1857.18 2341.35 1927.43 2321.05 1997.14C2307.01 1998.86 2279.78 2004.34 2266.96 2000.44C2261.27 1994.41 2262.84 1976.79 2260.76 1969.08C2258.53 1975.29 2251.59 2001.5 2243.98 2004.85C2243.29 2005.15 2240.9 2005.61 2239.99 2005.8C2230.24 2006.99 2220.54 2007.43 2210.6 2007.9C2212.72 2001.75 2210.01 1993.87 2208.45 1987.68C2200.65 1956.75 2180.52 1932.22 2148.8 1906.14C2172.09 1941.32 2167.42 1971.44 2165.1 2007.57L2162.7 2010.24C2138.39 2014.3 2100.72 2012.3 2073.35 2015.63C2073.27 2010.18 2072.51 2004.78 2071.57 1999.35C2062.02 1944.67 2021.72 1849.26 1939.97 1813.55L1907.34 1798.61C1914.42 1804.46 1922.04 1810.03 1929.48 1815.74C1984.1 1866.94 1996.07 1925.92 1989.43 1983.61C1988.27 1993.75 1988.62 2004.38 1985.09 2014.36L1982.62 2015.7L1960.82 2015.52C1958.31 1979.87 1940.76 1937.91 1900.24 1908.71C1917.89 1934.13 1918.59 1960.78 1915.32 1987.52C1914.27 1996.06 1911.64 2004.77 1912.02 2013.31C1912.03 2013.61 1912.05 2013.9 1912.07 2014.19C1874.52 2013.1 1810 2013.23 1775.72 2008.4L1773.91 2006.2C1777.15 2001.51 1777.56 1995.38 1779 1990.42C1782.77 1977.41 1786.89 1965.82 1796.43 1953.55C1780.45 1963.79 1767.78 1974.66 1757.04 1986.63C1751.27 1993.06 1746.24 2000.48 1738.83 2006.39L1736.01 2005.92C1720.92 1987.7 1730.52 1925.46 1736.25 1904.85C1741.09 1888.13 1747.92 1871.58 1756.69 1855.3C1764.1 1841.53 1776.8 1828.49 1785.82 1814.98C1793.3 1807.66 1801.37 1800.61 1809.71 1793.56C1799.89 1797.87 1790.26 1802.29 1780.81 1806.82C1702.76 1845.68 1670 1907.31 1649.12 1961.26C1644.07 1974.32 1638.07 1987.91 1636.16 2001.21L1635.07 2002.29C1626.07 2004.03 1468.85 1987.8 1446.58 1985.6C1452.57 1974.29 1454.99 1962.22 1460.73 1950.78C1472.68 1926.94 1493.15 1906.15 1514.8 1884.47C1522.72 1877.86 1539.55 1870.61 1543.51 1863.32L1510.94 1877.96C1456.15 1904.83 1423.05 1944.22 1400.51 1980.87C1390.77 1979.64 1381.24 1978.45 1371.89 1976.52C1376.37 1953.67 1381.31 1928.4 1398.38 1907.08C1402.55 1901.68 1408.8 1896.42 1414.2 1891.32C1405.17 1894.72 1400.61 1899.03 1394.94 1903.89C1374.81 1921.29 1352.34 1939.58 1341.48 1959.24C1337.78 1962.98 1335.95 1967.9 1333.56 1971.95C1318.06 1968.06 1300.82 1966.16 1284.04 1964.44L1284.66 1951.09C1289.88 1931.47 1289.12 1911.01 1293.61 1891.19C1304.68 1842.37 1327.9 1795.65 1356.75 1748.97C1367.33 1735.29 1380.63 1722.19 1393.03 1708.94C1378.17 1718.72 1365.44 1729.96 1352.18 1740.38C1284.13 1793.96 1244.91 1858.64 1218.49 1921.09C1213.7 1932.42 1207.79 1944.13 1204.79 1955.63C1191.4 1952.05 1174.74 1950.6 1160.27 1948.27C1159.96 1936.56 1160.05 1924.85 1160.53 1913.14C1162.98 1905.01 1162.86 1896.27 1164.14 1888.02C1167.25 1868.03 1171.69 1847.68 1181.15 1828.21C1184.42 1822.87 1188.01 1817.8 1188.31 1812.14C1183.46 1816.23 1181.1 1821 1178.23 1825.56C1160.59 1848.15 1144.09 1871.03 1132.91 1894.77C1126.89 1907.55 1124.55 1921.01 1117.38 1933.6C1115.62 1936.68 1113.9 1938.95 1108.38 1940.46C1106.93 1940.01 1105.09 1939.81 1104.04 1939.13C1099.1 1935.91 1090.98 1898.78 1087.18 1890.97C1055.73 1826.36 992.255 1736.62 918.346 1682.43L917.165 1681.58C900.148 1666.93 882.016 1649.83 860.266 1637.07C875.466 1651.82 891.665 1666.1 905.265 1681.29C963.374 1748.69 1002.08 1812.42 995.124 1887.43C994.188 1897.52 995.342 1912.8 988.784 1922.27C987.858 1923.61 986.408 1924.21 984.166 1924.82C976.032 1923.22 967.854 1921.68 959.633 1920.21L958.105 1920.09C951.911 1915.08 949.19 1890.24 946.421 1882.32C937.169 1855.87 917.325 1820.13 887.071 1798.24C885.717 1805.14 898.715 1820.28 901.406 1828.21C905.605 1840.59 914.499 1901.27 903.587 1912.56C903.214 1912.94 902.668 1913.28 902.208 1913.63C890.985 1909.89 871.766 1906.04 858.385 1905.95C867.833 1866.48 821.372 1800.99 775.784 1769.82C813.417 1810.26 813.238 1850.3 808.403 1894.11L806.927 1896.19C785.096 1896.03 710.317 1880.48 683.717 1876.18C672.133 1873.86 659.606 1872.28 647.696 1870.42C647.887 1845.62 650.674 1816.83 675.362 1794.94C681.006 1789.94 689.031 1785.39 695.921 1780.82C682.204 1786.65 667.191 1791.45 653.869 1797.56C618.7 1813.71 595.411 1838.69 579.49 1861.31C567.142 1859.49 554.846 1857.58 542.604 1855.58C534.328 1781.59 508.314 1704.4 420.44 1644.19C425.778 1650.75 431.206 1657.33 436.079 1663.99C469.552 1709.78 475.033 1766.57 458.941 1814.56C455.807 1823.91 452.493 1834.21 445.091 1842.9L442.673 1843.16L441.448 1840.27L443.511 1840.67L441.181 1839.4L443.688 1839.93L441.512 1838.78L442.245 1838.29C442.344 1834.74 441.887 1831.41 441.074 1827.88C438.243 1829.11 438.243 1832.17 437.564 1834.08C436.05 1837.76 433.55 1842.32 427.754 1844.69C388.799 1843.66 336.03 1833.98 295.674 1830.18L298.976 1811.97C301.245 1808.91 304.003 1805.7 303.271 1802.38C298.372 1804.54 296.534 1808.68 294.365 1811.8C288.788 1817.28 286.071 1822.96 283.059 1828.93C275.336 1828.12 267.683 1827.03 260.034 1826.05C267.686 1782.49 269.112 1740.96 295.09 1698.88C299.957 1690.33 309.327 1682.53 315.011 1674.02L313.759 1674.05L314.307 1674.91L312.958 1674.71C304.171 1682.88 291.621 1689.89 283.816 1698.27C248.715 1722.56 212.272 1790.19 208.881 1821.43C194.56 1818.24 178.736 1816.56 163.562 1814.87C162.912 1814.44 162.106 1814.06 161.614 1813.58C153.023 1805.1 169.86 1737.83 174.64 1724.3C153.381 1752.66 145.419 1779.83 131.022 1808.84L127.798 1809.12C110.061 1804.73 113.38 1787.57 111.428 1778.48C100.473 1727.47 65.6449 1674.86 20.9548 1629.46C48.923 1678.49 67.33 1725.93 63.0021 1777.44C62.4331 1784.21 63.8861 1793.99 58.9258 1800.08C45.5437 1799.73 11.3559 1793.36 0 1789.41L0 1247.62C55.2567 1243.95 107.889 1251.87 154.092 1267.71C263.821 1305.32 313.622 1372.26 339.505 1436.83C383.989 1426.48 439.746 1423.44 486.876 1430.03C506.189 1356.85 570.593 1282.19 681.235 1234.73C770.569 1196.42 884.491 1174.97 999.937 1187.97C1024.43 1190.73 1073.89 1201.49 1091.15 1202.17C1091.98 1202.2 1092.81 1202.21 1093.64 1202.24L1059.05 1421.82L1049.41 1483.88C1046.95 1499.55 1042.32 1515.86 1045.05 1531.57C1047.11 1543.42 1054.48 1552.53 1068.99 1561.57C1205.86 1584.82 1342.43 1608.56 1478.7 1632.76C1511.82 1638.46 1544.82 1644.32 1577.71 1650.37C1599.64 1654.39 1621.82 1659.05 1644.33 1662.08C1651.17 1663 1656.91 1663.62 1663.38 1661.49C1678.6 1656.49 1684.88 1641.41 1687.35 1632.53C1693.25 1611.4 1695.44 1589.7 1699.26 1568.43L1719.89 1452.52C1722.25 1438.68 1725.02 1401.81 1731.12 1390.15C1737.85 1393 1757.24 1393.48 1766.34 1394.48C1793.22 1397.44 1820.99 1401.61 1846.65 1406.81C1891.16 1415.83 1935.34 1431.76 1971.49 1448.07C2091.16 1502.05 2149.56 1584.12 2160.56 1664.89C2200.88 1669.16 2232.72 1674.5 2267.27 1686.5C2285.37 1664.51 2309.06 1643.92 2337.7 1625.28C2384.88 1595.03 2450.04 1569.23 2526.13 1565.38C2604.84 1561.4 2669.72 1575.71 2729.54 1601.59C2762.59 1530.74 2832.51 1461.98 2928.91 1409.38C3006.5 1367.04 3108.12 1334.11 3222.83 1333.27C3349.9 1332.33 3423.37 1366.11 3508.99 1409.64Z"/><path fill="#ED7A55" transform="scale(0.999756 1)" d="M1438.09 1250.28C1434.28 1250.34 1430.93 1250.31 1427.18 1249.86C1417.89 1248.75 1409.47 1243.57 1404.6 1239.57C1383.45 1222.19 1381.29 1192.19 1389.97 1172.57C1394.37 1162.62 1400.33 1155.85 1417.07 1150.38C1417.74 1150.37 1418.4 1150.35 1419.07 1150.37C1430.75 1150.68 1440.36 1154.35 1447.62 1158.95C1470.56 1173.47 1470.41 1198.77 1466.41 1216.53C1463.51 1229.39 1458.26 1241.87 1438.09 1250.28Z"/><path fill="#CA5235" transform="scale(0.999756 1)" d="M1539.24 1165.51L1542.01 1165.43C1557.07 1187.67 1549.93 1229.5 1530.5 1250.83C1521.62 1260.57 1510.98 1266.27 1495.42 1273.03C1493.12 1274.03 1488.14 1275.6 1486.77 1276.76C1485.41 1277.92 1487.32 1281.24 1487.39 1282.54C1487.42 1283.07 1487.21 1283.59 1487.12 1284.12L1471.9 1275.17C1491.08 1270.52 1507.1 1264.52 1519.22 1255.25C1551.95 1230.22 1549.48 1193.94 1539.24 1165.51Z"/><path fill="#ED7A55" transform="scale(0.999756 1)" d="M1414.52 1395.27C1408.99 1395.3 1403.35 1395.35 1397.94 1394.63C1384.3 1392.82 1373.33 1387.25 1366.47 1380.99C1346.05 1362.36 1347.59 1331.9 1357.62 1311.73C1362.72 1301.48 1369.98 1293.42 1387.79 1288.02C1390.35 1288.1 1390.2 1288.06 1393.15 1288.36C1407.91 1289.82 1419.66 1296.55 1427.24 1302.95C1448.84 1321.2 1456.02 1351.53 1446.05 1372.22C1440.91 1382.89 1432.22 1389.52 1414.52 1395.27Z"/><path fill="#CA5235" transform="scale(0.999756 1)" d="M1503.22 1420.36C1504.18 1421.36 1505.38 1422 1504.92 1423.16C1502.69 1428.76 1488.97 1434.82 1480.52 1438.29C1458.09 1447.52 1430.1 1450.98 1402.09 1448.82C1363.15 1445.8 1329.15 1432.29 1306.18 1416.02C1295.8 1408.67 1282.73 1397.74 1285.31 1388.36C1303.18 1411.38 1329.82 1431.02 1374.99 1440.79C1400.75 1446.37 1431.06 1447.25 1456.94 1441.42C1476.37 1437.03 1491.47 1429.44 1503.22 1420.36Z"/><path fill="#396E81" transform="scale(0.999756 1)" d="M917.165 1681.58L918.346 1682.43C992.255 1736.62 1055.73 1826.36 1087.18 1890.97C1090.98 1898.78 1099.1 1935.91 1104.04 1939.13C1105.09 1939.81 1106.93 1940.01 1108.38 1940.46C1113.9 1938.95 1115.62 1936.68 1117.38 1933.6C1124.55 1921.01 1126.89 1907.55 1132.91 1894.77C1144.09 1871.03 1160.59 1848.15 1178.23 1825.56L1181.15 1828.21C1171.69 1847.68 1167.25 1868.03 1164.14 1888.02C1162.86 1896.27 1162.98 1905.01 1160.53 1913.14C1160.48 1912.59 1160.45 1912.03 1160.37 1911.48C1160.04 1909.06 1160.35 1910 1158.65 1907.69C1156.82 1919.88 1154.46 1940.93 1160 1952.49C1172.47 1953.88 1192.38 1958.16 1204.06 1957.49C1204.36 1956.87 1204.9 1956.26 1204.79 1955.63C1207.79 1944.13 1213.7 1932.42 1218.49 1921.09C1244.91 1858.64 1284.13 1793.96 1352.18 1740.38C1355.56 1743.35 1355.88 1744.65 1355.71 1748.11L1356.75 1748.97C1327.9 1795.65 1304.68 1842.37 1293.61 1891.19C1289.12 1911.01 1289.88 1931.47 1284.66 1951.09L1282.77 1945.12C1281.35 1951.32 1277.9 1960.91 1286.11 1966.13C1294.27 1971.32 1321.4 1972.62 1334.13 1975.7C1337.43 1970.8 1342.59 1965.16 1343.13 1959.98L1341.48 1959.24C1352.34 1939.58 1374.81 1921.29 1394.94 1903.89L1398.38 1907.08C1381.31 1928.4 1376.37 1953.67 1371.89 1976.52C1381.24 1978.45 1390.77 1979.64 1400.51 1980.87C1423.05 1944.22 1456.15 1904.83 1510.94 1877.96C1514.7 1880.78 1514.83 1881.02 1514.8 1884.47C1493.15 1906.15 1472.68 1926.94 1460.73 1950.78C1454.99 1962.22 1452.57 1974.29 1446.58 1985.6L1444.2 1986.19L1444.73 1988.01C1454.44 1990.73 1626.85 2006.97 1635.25 2005.86L1637.59 2004.19C1637.25 2003.25 1637.13 2002.03 1636.16 2001.21C1638.07 1987.91 1644.07 1974.32 1649.12 1961.26C1670 1907.31 1702.76 1845.68 1780.81 1806.82L1786.4 1808.79C1786.55 1811.05 1785.07 1812.81 1785.82 1814.98C1776.8 1828.49 1764.1 1841.53 1756.69 1855.3C1747.92 1871.58 1741.09 1888.13 1736.25 1904.85C1730.52 1925.46 1720.92 1987.7 1736.01 2005.92L1738.83 2006.39C1746.24 2000.48 1751.27 1993.06 1757.04 1986.63C1767.78 1974.66 1780.45 1963.79 1796.43 1953.55C1786.89 1965.82 1782.77 1977.41 1779 1990.42C1777.56 1995.38 1777.15 2001.51 1773.91 2006.2L1772.4 2004.08L1771.22 2009.26C1782.21 2015.68 1879.64 2017.24 1901.47 2017.77C1904.71 2017.85 1907.25 2017.34 1910.16 2016.68C1910.78 2015.95 1911.86 2014.98 1912.07 2014.19C1912.05 2013.9 1912.03 2013.61 1912.02 2013.31C1911.64 2004.77 1914.27 1996.06 1915.32 1987.52C1918.59 1960.78 1917.89 1934.13 1900.24 1908.71C1940.76 1937.91 1958.31 1979.87 1960.82 2015.52L1962.12 2017.67C1970.01 2019.57 1977 2019.33 1985.21 2018.27L1985.75 2016.94L1982.62 2015.7L1985.09 2014.36C1988.62 2004.38 1988.27 1993.75 1989.43 1983.61C1996.07 1925.92 1984.1 1866.94 1929.48 1815.74L1939.97 1813.55C2021.72 1849.26 2062.02 1944.67 2071.57 1999.35C2072.51 2004.78 2073.27 2010.18 2073.35 2015.63L2073.13 2017.38C2073.77 2017.51 2074.37 2017.68 2075.03 2017.77C2085.31 2019.25 2156.26 2015.61 2165.08 2012.72C2166.17 2010.36 2166.38 2009.88 2165.1 2007.57C2167.42 1971.44 2172.09 1941.32 2148.8 1906.14C2180.52 1932.22 2200.65 1956.75 2208.45 1987.68C2210.01 1993.87 2212.72 2001.75 2210.6 2007.9C2208.84 2008.64 2209.8 2008.09 2208.75 2009.94L2213.06 2011.21C2223.86 2011.01 2238.41 2010.56 2247.87 2007.59L2247 2006.25L2239.99 2005.8C2240.9 2005.61 2243.29 2005.15 2243.98 2004.85C2251.59 2001.5 2258.53 1975.29 2260.76 1969.08C2262.84 1976.79 2261.27 1994.41 2266.96 2000.44C2279.78 2004.34 2307.01 1998.86 2321.05 1997.14C2341.35 1927.43 2337.29 1857.18 2281.35 1791.97C2281.52 1788.37 2281.28 1787.63 2285.16 1784.51C2354.2 1823.47 2388.24 1889.95 2395.24 1942.24C2431.89 1878.31 2479.25 1813.19 2570.22 1764.73C2587.11 1755.73 2607.16 1745.55 2628.34 1739.42C2629.04 1739.21 2629.77 1739.03 2630.49 1738.84C2533.16 1794.74 2477.74 1916.53 2477.82 1991.16C2503.6 1954.67 2536.13 1905.65 2595.44 1881.03L2605.54 1882.43C2580.54 1912.69 2566.8 1947.07 2568.33 1980.13C2588.32 1976.84 2609.45 1976.81 2629.37 1973.8C2629.23 1975.05 2629.14 1974.29 2630.32 1976.02C2631.38 1976.14 2632.44 1976.29 2633.52 1976.39C2645.6 1977.59 2671.15 1974.68 2681.4 1971.17L2679.82 1970.26L2669.46 1970.42C2678.01 1969.32 2686.18 1968.16 2694.38 1966.46C2700.35 1957.86 2700.47 1946.82 2703.48 1937.72C2707.48 1925.65 2712.96 1913.56 2718.82 1901.71C2748.61 1841.44 2798.98 1784.7 2905.24 1751.88C2818.91 1811.23 2799.02 1885.62 2783.26 1957.69C2809.21 1922.31 2834.7 1902 2897.99 1882.71C2868.39 1904.1 2854.78 1935.73 2853.78 1961.82L2851.65 1960.59L2849.77 1960.77C2850.16 1963.07 2851.46 1963.83 2854.33 1965.53C2874.98 1964.76 2899.26 1965.46 2919.06 1962.66C2914.5 1960.86 2908.89 1961.23 2903.27 1961C2931.84 1957.55 2963.98 1958.77 2993.23 1958.97C2988.42 1959.49 2983.61 1959.99 2978.87 1960.67L2981.23 1959.96L2981.92 1961.79C2992.22 1961.85 3011.4 1962.98 3020.21 1960.61C3019.57 1960.51 3018.92 1960.41 3018.28 1960.31C3015.45 1959.84 3016.55 1960.05 3013.74 1959.34C3016.47 1959.05 3019.62 1959.25 3021.01 1957.82C3032.86 1945.6 3005.2 1889.07 2996.21 1876.58C3011 1889.08 3028.06 1900.8 3042.68 1913.36C3059.04 1927.4 3072.23 1942.24 3085.28 1957.18C3092.69 1957.69 3100.22 1957.85 3107.67 1958.13C3108.91 1932.57 3112.73 1907.06 3113.19 1881.47C3113.93 1838.15 3105.47 1794.93 3087.98 1752.59C3082.31 1738.98 3076.71 1723.02 3065.65 1710.42C3063.62 1708.1 3062.85 1707.74 3063.19 1705.15C3073.94 1710.67 3081.86 1721.52 3089.88 1728.5C3138.99 1771.21 3166.88 1818.48 3185.08 1867.18C3193.71 1890.25 3198.04 1912.93 3199.83 1936.41C3200.18 1941.04 3198.3 1953.01 3203.29 1956.61C3208.34 1957.26 3209.56 1957.66 3214.36 1956.73C3217.28 1954.67 3240.7 1900.42 3246.62 1891.36C3281.55 1837.92 3333.34 1784.74 3411.9 1745.42C3425.42 1738.66 3442.7 1729.79 3459.51 1725.46L3465.06 1726.63L3471.31 1725.02L3471.53 1725.7L3469.26 1726.01L3471.66 1727.25L3470.44 1730.47C3451.74 1742.79 3432.37 1755.33 3416.44 1768.69C3349.34 1824.97 3310.4 1895.03 3309.92 1961.41C3336.26 1936.28 3362.95 1914.76 3400.01 1893.45C3385.68 1914.6 3382.73 1937.02 3380.76 1959.28L3381.55 1961.29C3401.23 1962.9 3466.35 1964.71 3485.37 1963.27L3488.07 1962.1L3486.69 1961C3496.85 1961.41 3506.77 1961.73 3516.68 1963.1C3509.28 1963.16 3499.93 1962.66 3492.97 1963.96L3495.15 1963.31L3496.01 1964.98C3508.44 1966 3555.75 1971.34 3563.9 1969.34C3564.21 1968.34 3564.87 1967.49 3564.21 1966.52C3578.07 1919.54 3562.07 1877.73 3525.41 1834.77L3526.77 1833.09C3525.9 1831.35 3525.28 1829.98 3525.1 1828.17L3533.53 1828.46C3534.14 1828.66 3534.78 1828.83 3535.35 1829.05C3550.19 1834.8 3563.84 1844.26 3576.13 1851.61C3637.07 1888.1 3673.32 1921.62 3688.19 1970.15C3695.57 1970.19 3702.96 1970.27 3710.34 1970.41C3727.87 1922.63 3704.63 1870.58 3666.98 1826.98C3666.71 1824.4 3666.35 1823.48 3668.53 1821.09L3675.68 1821.18C3726.18 1847.33 3755.42 1891.93 3764.79 1928C3769.51 1916.16 3774.91 1904.39 3780.98 1892.72C3804.8 1847.13 3857.34 1776.77 3937.63 1752.74L3949.22 1755.1C3883.69 1812.79 3852.24 1904 3856.64 1970.92C3877.84 1931.61 3913.57 1888.23 3973.59 1860.83C3991.92 1852.47 4013.06 1845.87 4033.47 1839.01C3986.93 1867.53 3969.85 1902.7 3963.86 1939.61C3962.34 1949.01 3962.45 1958.51 3960.71 1967.87L3959.25 1968.26C3961.53 1970.52 3961.47 1970.34 3965.89 1971.02C3972.27 1972.01 3980.23 1971.81 3986.88 1971.98L3987.74 1970.27C3979.13 1968.35 3969.65 1969.02 3960.71 1967.87C3970.38 1967.44 3978.87 1967.59 3988.49 1968.16C4000.21 1950.61 4014.85 1935.89 4034.8 1920.52C4044.87 1912.76 4056.22 1905.25 4064.78 1897.01C4052.06 1921.15 4054.17 1944.58 4058.65 1969.28C4071.04 1969.29 4083.64 1969.05 4096 1969.44L4096 2150L0 2150L0 1789.41C11.3559 1793.36 45.5437 1799.73 58.9258 1800.08C63.8861 1793.99 62.4331 1784.21 63.0021 1777.44C67.33 1725.93 48.923 1678.49 20.9548 1629.46C65.6449 1674.86 100.473 1727.47 111.428 1778.48C113.38 1787.57 110.061 1804.73 127.798 1809.12L131.022 1808.84C145.419 1779.83 153.381 1752.66 174.64 1724.3C169.86 1737.83 153.023 1805.1 161.614 1813.58C162.106 1814.06 162.912 1814.44 163.562 1814.87L160.877 1815.8C166.465 1819.81 190.61 1822.23 200.4 1823.14C203.576 1823.44 205.727 1823.31 208.769 1822.79L208.881 1821.43C212.272 1790.19 248.715 1722.56 283.816 1698.27L286.877 1698.74L291.003 1696.55C292.696 1697.33 293.946 1697.85 295.09 1698.88C269.112 1740.96 267.686 1782.49 260.034 1826.05C267.683 1827.03 275.336 1828.12 283.059 1828.93C286.071 1822.96 288.788 1817.28 294.365 1811.8L298.976 1811.97L295.674 1830.18C336.03 1833.98 388.799 1843.66 427.754 1844.69C433.55 1842.32 436.05 1837.76 437.564 1834.08L442.245 1838.29L441.512 1838.78L443.688 1839.93L441.181 1839.4L443.511 1840.67L441.448 1840.27L442.673 1843.16L445.091 1842.9C452.493 1834.21 455.807 1823.91 458.941 1814.56C475.033 1766.57 469.552 1709.78 436.079 1663.99C431.206 1657.33 425.778 1650.75 420.44 1644.19C508.314 1704.4 534.328 1781.59 542.604 1855.58C554.846 1857.58 567.142 1859.49 579.49 1861.31C595.411 1838.69 618.7 1813.71 653.869 1797.56C667.191 1791.45 682.204 1786.65 695.921 1780.82C689.031 1785.39 681.006 1789.94 675.362 1794.94C650.674 1816.83 647.887 1845.62 647.696 1870.42C659.606 1872.28 672.133 1873.86 683.717 1876.18L680.756 1878.12C687.91 1882.55 786.158 1897 805.629 1900.3L809.136 1899.41C810.005 1896.89 810.167 1896.48 808.403 1894.11C813.238 1850.3 813.417 1810.26 775.784 1769.82C821.372 1800.99 867.833 1866.48 858.385 1905.95L859.441 1908.07C868.037 1910.64 895.51 1916.48 904.645 1915.4L904.029 1913.96L902.208 1913.63C902.668 1913.28 903.214 1912.94 903.587 1912.56C914.499 1901.27 905.605 1840.59 901.406 1828.21C898.715 1820.28 885.717 1805.14 887.071 1798.24C917.325 1820.13 937.169 1855.87 946.421 1882.32C949.19 1890.24 951.911 1915.08 958.105 1920.09L959.633 1920.21L957.082 1922.38C964.006 1926.19 975.827 1927.14 985.448 1927.68L988.765 1926.85L987.898 1925.63L984.166 1924.82C986.408 1924.21 987.858 1923.61 988.784 1922.27C995.342 1912.8 994.188 1897.52 995.124 1887.43C1002.08 1812.42 963.374 1748.69 905.265 1681.29C905.926 1680.49 907.186 1679.72 908.142 1679C910.44 1680.03 912.003 1680.65 914.897 1681.2C915.643 1681.34 916.409 1681.45 917.165 1681.58Z"/><path fill="#4F7E9A" transform="scale(0.999756 1)" d="M860.266 1637.07C882.016 1649.83 900.148 1666.93 917.165 1681.58C916.409 1681.45 915.643 1681.34 914.897 1681.2C912.003 1680.65 910.44 1680.03 908.142 1679C907.186 1679.72 905.926 1680.49 905.265 1681.29C891.665 1666.1 875.466 1651.82 860.266 1637.07Z"/><path fill="#4F7E9A" transform="scale(0.999756 1)" d="M283.816 1698.27C291.621 1689.89 304.171 1682.88 312.958 1674.71L314.307 1674.91L313.759 1674.05L315.011 1674.02C309.327 1682.53 299.957 1690.33 295.09 1698.88C293.946 1697.85 292.696 1697.33 291.003 1696.55L286.877 1698.74L283.816 1698.27Z"/><path fill="#4F7E9A" transform="scale(0.999756 1)" d="M3459.51 1725.46C3477.16 1719.2 3494.72 1712.03 3513.99 1707.22L3515.42 1707.7C3501.66 1715.84 3484.68 1722.41 3470.44 1730.47L3471.66 1727.25L3469.26 1726.01L3471.53 1725.7L3471.31 1725.02L3465.06 1726.63L3459.51 1725.46Z"/><path fill="#4F7E9A" transform="scale(0.999756 1)" d="M1352.18 1740.38C1365.44 1729.96 1378.17 1718.72 1393.03 1708.94C1380.63 1722.19 1367.33 1735.29 1356.75 1748.97L1355.71 1748.11C1355.88 1744.65 1355.56 1743.35 1352.18 1740.38Z"/><path fill="#4F7E9A" transform="scale(0.999756 1)" d="M3937.63 1752.74C3950.91 1747.34 3964.02 1741.51 3978.14 1736.73C3968.35 1742.55 3957.1 1748.51 3949.22 1755.1L3937.63 1752.74Z"/><path fill="#4F7E9A" transform="scale(0.999756 1)" d="M2252.72 1768.18C2263.85 1773.44 2274.44 1779.02 2285.16 1784.51C2281.28 1787.63 2281.52 1788.37 2281.35 1791.97C2273.52 1783.6 2262.44 1775.98 2252.72 1768.18Z"/><path fill="#E0742C" transform="scale(0.999756 1)" d="M1780.81 1806.82C1790.26 1802.29 1799.89 1797.87 1809.71 1793.56C1801.37 1800.61 1793.3 1807.66 1785.82 1814.98C1785.07 1812.81 1786.55 1811.05 1786.4 1808.79L1780.81 1806.82Z"/><path fill="#799FC2" transform="scale(0.999756 1)" d="M294.365 1811.8C296.534 1808.68 298.372 1804.54 303.271 1802.38C304.003 1805.7 301.245 1808.91 298.976 1811.97L294.365 1811.8Z"/><path fill="#4F7E9A" transform="scale(0.999756 1)" d="M1907.34 1798.61L1939.97 1813.55L1929.48 1815.74C1922.04 1810.03 1914.42 1804.46 1907.34 1798.61Z"/><path fill="#4F7E9A" transform="scale(0.999756 1)" d="M3666.98 1826.98C3659.09 1818.55 3647.19 1811.63 3639.44 1803.3L3641.34 1803.25C3654.1 1808.42 3664.76 1814.98 3675.68 1821.18L3668.53 1821.09C3666.35 1823.48 3666.71 1824.4 3666.98 1826.98Z"/><path fill="#799FC2" transform="scale(0.999756 1)" d="M1178.23 1825.56C1181.1 1821 1183.46 1816.23 1188.31 1812.14C1188.01 1817.8 1184.42 1822.87 1181.15 1828.21L1178.23 1825.56Z"/><path fill="#E0742C" transform="scale(0.999756 1)" d="M3493.38 1807.66C3507.75 1813.97 3520.5 1821.41 3533.53 1828.46L3525.1 1828.17C3525.28 1829.98 3525.9 1831.35 3526.77 1833.09L3525.41 1834.77C3515.65 1825.18 3504.63 1816.74 3493.38 1807.66Z"/><path fill="#4F7E9A" transform="scale(0.999756 1)" d="M208.881 1821.43L208.769 1822.79C205.727 1823.31 203.576 1823.44 200.4 1823.14C190.61 1822.23 166.465 1819.81 160.877 1815.8L163.562 1814.87C178.736 1816.56 194.56 1818.24 208.881 1821.43Z"/><path fill="#799FC2" transform="scale(0.999756 1)" d="M437.564 1834.08C438.243 1832.17 438.243 1829.11 441.074 1827.88C441.887 1831.41 442.344 1834.74 442.245 1838.29L437.564 1834.08Z"/><path fill="#4F7E9A" transform="scale(0.999756 1)" d="M1510.94 1877.96L1543.51 1863.32C1539.55 1870.61 1522.72 1877.86 1514.8 1884.47C1514.83 1881.02 1514.7 1880.78 1510.94 1877.96Z"/><path fill="#E0742C" transform="scale(0.999756 1)" d="M2595.44 1881.03C2603.96 1877.14 2612.56 1873.31 2621.26 1869.53L2605.54 1882.43L2595.44 1881.03Z"/><path fill="#4F7E9A" transform="scale(0.999756 1)" d="M808.403 1894.11C810.167 1896.48 810.005 1896.89 809.136 1899.41L805.629 1900.3C786.158 1897 687.91 1882.55 680.756 1878.12L683.717 1876.18C710.317 1880.48 785.096 1896.03 806.927 1896.19L808.403 1894.11Z"/><path fill="#799FC2" transform="scale(0.999756 1)" d="M1394.94 1903.89C1400.61 1899.03 1405.17 1894.72 1414.2 1891.32C1408.8 1896.42 1402.55 1901.68 1398.38 1907.08L1394.94 1903.89Z"/><path fill="#4F7E9A" transform="scale(0.999756 1)" d="M902.208 1913.63L904.029 1913.96L904.645 1915.4C895.51 1916.48 868.037 1910.64 859.441 1908.07L858.385 1905.95C871.766 1906.04 890.985 1909.89 902.208 1913.63Z"/><path fill="#4F7E9A" transform="scale(0.999756 1)" d="M1204.79 1955.63C1204.9 1956.26 1204.36 1956.87 1204.06 1957.49C1192.38 1958.16 1172.47 1953.88 1160 1952.49C1154.46 1940.93 1156.82 1919.88 1158.65 1907.69C1160.35 1910 1160.04 1909.06 1160.37 1911.48C1160.45 1912.03 1160.48 1912.59 1160.53 1913.14C1160.05 1924.85 1159.96 1936.56 1160.27 1948.27C1174.74 1950.6 1191.4 1952.05 1204.79 1955.63Z"/><path fill="#4F7E9A" transform="scale(0.999756 1)" d="M984.166 1924.82L987.898 1925.63L988.765 1926.85L985.448 1927.68C975.827 1927.14 964.006 1926.19 957.082 1922.38L959.633 1920.21C967.854 1921.68 976.032 1923.22 984.166 1924.82Z"/><path fill="#4F7E9A" transform="scale(0.999756 1)" d="M1334.13 1975.7C1321.4 1972.62 1294.27 1971.32 1286.11 1966.13C1277.9 1960.91 1281.35 1951.32 1282.77 1945.12L1284.66 1951.09L1284.04 1964.44C1300.82 1966.16 1318.06 1968.06 1333.56 1971.95C1335.95 1967.9 1337.78 1962.98 1341.48 1959.24L1343.13 1959.98C1342.59 1965.16 1337.43 1970.8 1334.13 1975.7Z"/><path fill="#4F7E9A" transform="scale(0.999756 1)" d="M2993.23 1958.97C3000.11 1958.93 3006.92 1958.79 3013.74 1959.34C3016.55 1960.05 3015.45 1959.84 3018.28 1960.31C3018.92 1960.41 3019.57 1960.51 3020.21 1960.61C3011.4 1962.98 2992.22 1961.85 2981.92 1961.79L2981.23 1959.96L2978.87 1960.67C2983.61 1959.99 2988.42 1959.49 2993.23 1958.97Z"/><path fill="#4F7E9A" transform="scale(0.999756 1)" d="M3486.69 1961L3488.07 1962.1L3485.37 1963.27C3466.35 1964.71 3401.23 1962.9 3381.55 1961.29L3380.76 1959.28C3415.45 1957.1 3452.08 1959.63 3486.69 1961Z"/><path fill="#4F7E9A" transform="scale(0.999756 1)" d="M2853.78 1961.82C2870.2 1960.86 2886.77 1960.93 2903.27 1961C2908.89 1961.23 2914.5 1960.86 2919.06 1962.66C2899.26 1965.46 2874.98 1964.76 2854.33 1965.53C2851.46 1963.83 2850.16 1963.07 2849.77 1960.77L2851.65 1960.59L2853.78 1961.82Z"/><path fill="#4F7E9A" transform="scale(0.999756 1)" d="M3564.21 1966.52C3564.87 1967.49 3564.21 1968.34 3563.9 1969.34C3555.75 1971.34 3508.44 1966 3496.01 1964.98L3495.15 1963.31L3492.97 1963.96C3499.93 1962.66 3509.28 1963.16 3516.68 1963.1C3532.62 1963.19 3548.86 1966.82 3564.21 1966.52Z"/><path fill="#4F7E9A" transform="scale(0.999756 1)" d="M3986.88 1971.98C3980.23 1971.81 3972.27 1972.01 3965.89 1971.02C3961.47 1970.34 3961.53 1970.52 3959.25 1968.26L3960.71 1967.87C3969.65 1969.02 3979.13 1968.35 3987.74 1970.27L3986.88 1971.98Z"/><path fill="#4F7E9A" transform="scale(0.999756 1)" d="M2629.37 1973.8C2642.64 1973.45 2656.68 1972.34 2669.46 1970.42L2679.82 1970.26L2681.4 1971.17C2671.15 1974.68 2645.6 1977.59 2633.52 1976.39C2632.44 1976.29 2631.38 1976.14 2630.32 1976.02C2629.14 1974.29 2629.23 1975.05 2629.37 1973.8Z"/><path fill="#4F7E9A" transform="scale(0.999756 1)" d="M1636.16 2001.21C1637.13 2002.03 1637.25 2003.25 1637.59 2004.19L1635.25 2005.86C1626.85 2006.97 1454.44 1990.73 1444.73 1988.01L1444.2 1986.19L1446.58 1985.6C1468.85 1987.8 1626.07 2004.03 1635.07 2002.29L1636.16 2001.21Z"/><path fill="#4F7E9A" transform="scale(0.999756 1)" d="M1912.07 2014.19C1911.86 2014.98 1910.78 2015.95 1910.16 2016.68C1907.25 2017.34 1904.71 2017.85 1901.47 2017.77C1879.64 2017.24 1782.21 2015.68 1771.22 2009.26L1772.4 2004.08L1773.91 2006.2L1775.72 2008.4C1810 2013.23 1874.52 2013.1 1912.07 2014.19Z"/><path fill="#4F7E9A" transform="scale(0.999756 1)" d="M2165.1 2007.57C2166.38 2009.88 2166.17 2010.36 2165.08 2012.72C2156.26 2015.61 2085.31 2019.25 2075.03 2017.77C2074.37 2017.68 2073.77 2017.51 2073.13 2017.38L2073.35 2015.63C2100.72 2012.3 2138.39 2014.3 2162.7 2010.24L2165.1 2007.57Z"/><path fill="#4F7E9A" transform="scale(0.999756 1)" d="M2210.6 2007.9C2220.54 2007.43 2230.24 2006.99 2239.99 2005.8L2247 2006.25L2247.87 2007.59C2238.41 2010.56 2223.86 2011.01 2213.06 2011.21L2208.75 2009.94C2209.8 2008.09 2208.84 2008.64 2210.6 2007.9Z"/><path fill="#4F7E9A" transform="scale(0.999756 1)" d="M1982.62 2015.7L1985.75 2016.94L1985.21 2018.27C1977 2019.33 1970.01 2019.57 1962.12 2017.67L1960.82 2015.52L1982.62 2015.7Z"/></svg>